<?xml version="1.0" encoding="utf-8"?>
<!-- Generator: Adobe Illustrator 25.4.1, SVG Export Plug-In . SVG Version: 6.00 Build 0)  -->
<svg version="1.1" id="Layer_1" xmlns="http://www.w3.org/2000/svg" xmlns:xlink="http://www.w3.org/1999/xlink" x="0px" y="0px"
	 viewBox="0 0 500 500" style="enable-background:new 0 0 500 500;" xml:space="preserve">
<style type="text/css">
	.st0{fill:#959BA3;}
	.st1{fill:#732262;}
	.st2{fill:#23446E;}
</style>
<g>
	<path class="st0" d="M393.9,318.5L352.4,333l5.3,15.3c4,11.5,16.5,17.6,28,13.6l0,0c11.5-4,17.6-16.5,13.6-28L393.9,318.5z"/>
	<path class="st0" d="M109.1,153.6l39.4-19.6l-7.2-14.5c-5.4-10.9-18.6-15.3-29.5-9.9l0,0c-10.9,5.4-15.3,18.6-9.9,29.5L109.1,153.6
		z"/>
	<path class="st1" d="M257.8,34.7c-47.2-0.1-85.5,38.1-85.6,85.3c-0.1,47.2,38.1,85.5,85.3,85.6c47.2,0.1,85.5-38.1,85.6-85.3
		C343.2,73.1,305,34.8,257.8,34.7z M257.5,187.4c-37.1-0.1-67.2-30.3-67.1-67.4c0-13,3.8-25.1,10.3-35.4l114.2,0.2
		c6.4,10.3,10.1,22.4,10.1,35.5C324.8,157.4,294.7,187.5,257.5,187.4z"/>
	<path class="st2" d="M213.2,95.9c-5,8-8,17.5-8,27.6c-0.1,29,23.4,52.5,52.3,52.6c29,0.1,52.5-23.4,52.6-52.3
		c0-10.2-2.9-19.6-7.9-27.7L213.2,95.9z"/>
	<path class="st1" d="M349.3,212.6c6.5,4.8,11.7,11.5,14.6,19.7l25.7,74.2L349,320.5L349.3,212.6z"/>
	<g>
		<path class="st0" d="M176.4,435.8l0,9.9c0,10.6,8.6,19.3,19.2,19.3l34.4,0.1c10.6,0,19.3-8.6,19.3-19.2l0-9.9L176.4,435.8z"/>
		<path class="st1" d="M249.3,421.3l0.1-61.8c0-4.2,3.1-7.9,7.3-8.1c4.5-0.2,8.1,3.3,8.1,7.7l-0.1,62.3l72.9,0.2l0.4-191.4
			c0-13.6-6-25.8-15.5-34.1c-17.5,15-40.3,24.1-65.1,24s-47.6-9.2-65-24.3c-9.5,8.3-15.6,20.4-15.6,34l-0.4,191.4L249.3,421.3z
			 M257.2,334.7c-2.9,0-5.2-2.3-5.2-5.2c0-2.9,2.4-5.2,5.2-5.2c2.9,0,5.2,2.4,5.2,5.2C262.4,332.3,260.1,334.7,257.2,334.7z
			 M257.2,314.3c-4.7,0-8.6-3.9-8.6-8.6c0-4.7,3.9-8.6,8.6-8.6c4.7,0,8.6,3.9,8.6,8.6C265.8,310.5,262,314.3,257.2,314.3z
			 M223,252.8c0-5.5,4.4-9.9,9.9-9.8l49,0.1c5.5,0,9.9,4.4,9.8,9.9l0,20.9c0,5.5-4.4,9.9-9.9,9.8l-49-0.1c-5.5,0-9.9-4.4-9.8-9.9
			L223,252.8z"/>
		<path class="st0" d="M264.7,436l0,9.9c0,10.6,8.6,19.3,19.2,19.3l34.4,0.1c10.6,0,19.3-8.6,19.3-19.2l0-9.9L264.7,436z"/>
	</g>
	<path class="st1" d="M165.3,227.9c0-12.7,4.7-24.2,12.3-33.2l-24.3-48.8L114.9,165l50.3,101.1L165.3,227.9z"/>
</g>
</svg>
