<?xml version="1.0" encoding="utf-8"?>
<!-- Generator: Adobe Illustrator 25.4.1, SVG Export Plug-In . SVG Version: 6.00 Build 0)  -->
<svg version="1.1" id="Layer_1" xmlns="http://www.w3.org/2000/svg" xmlns:xlink="http://www.w3.org/1999/xlink" x="0px" y="0px"
	 viewBox="0 0 800 460" style="enable-background:new 0 0 800 460;" xml:space="preserve">
<style type="text/css">
	.st0{fill:#DE9A38;}
</style>
<g>
	<g>
		<path class="st0" d="M772.3,58.4v153.1l-34.7,37.9l-2.3,2.5v3.5V372l-27.1,29.7H528.9l-25.2-27.5l-2.3-2.5h-3.2H335.6h-3.2
			l-2.3,2.5l-25.2,27.5H27.7v-90.5l10.8-11.8l2.3-2.5v-3.5v-69.4v-3.5l-2.3-2.5l-10.8-11.8v-90h322.2c5.2,0,10-2.2,13.7-6.2
			l47.1-51.5H772.3 M780.1,49.9H407.4l-49.4,54c-2.2,2.4-5.1,3.7-8.2,3.7H19.9v102.1L33,223.9v69.4l-13.1,14.3v102.5h288.2l27.4-30
			h162.6l27.5,30h185.8l31.7-34.6V255.4l37-40.4V49.9L780.1,49.9z"/>
		<path class="st0" d="M62.8,363.2v12.4H51.5v-12.4H62.8 M70.6,354.7H43.7v29.4h26.9V354.7L70.6,354.7z"/>
		<path class="st0" d="M748.5,84.3v12.4h-11.4V84.3H748.5 M756.3,75.8h-26.9v29.4h26.9V75.8L756.3,75.8z"/>
		<g>
			<rect x="550.4" y="374.9" class="st0" width="7.8" height="12.1"/>
			<rect x="566.8" y="374.9" class="st0" width="7.8" height="12.1"/>
			<rect x="583.2" y="374.9" class="st0" width="7.8" height="12.1"/>
			<rect x="599.5" y="374.9" class="st0" width="7.8" height="12.1"/>
			<rect x="615.9" y="374.9" class="st0" width="7.8" height="12.1"/>
			<rect x="632.3" y="374.9" class="st0" width="7.8" height="12.1"/>
			<rect x="648.6" y="374.9" class="st0" width="7.8" height="12.1"/>
			<rect x="665" y="374.9" class="st0" width="7.8" height="12.1"/>
			<rect x="681.3" y="374.9" class="st0" width="7.8" height="12.1"/>
		</g>
	</g>
	<g>
		<path class="st0" d="M772.3,58.4v153.1l-34.7,37.9l-2.3,2.5v3.5V372l-27.1,29.7H528.9l-25.2-27.5l-2.3-2.5h-3.2H335.6h-3.2
			l-2.3,2.5l-25.2,27.5H27.7v-90.5l10.8-11.8l2.3-2.5v-3.5v-69.4v-3.5l-2.3-2.5l-10.8-11.8v-90h322.2c5.2,0,10-2.2,13.7-6.2
			l47.1-51.5H772.3 M780.1,49.9H407.4l-49.4,54c-2.2,2.4-5.1,3.7-8.2,3.7H19.9v102.1L33,223.9v69.4l-13.1,14.3v102.5h288.2l27.4-30
			h162.6l27.5,30h185.8l31.7-34.6V255.4l37-40.4V49.9L780.1,49.9z"/>
		<path class="st0" d="M62.8,363.2v12.4H51.5v-12.4H62.8 M70.6,354.7H43.7v29.4h26.9V354.7L70.6,354.7z"/>
		<path class="st0" d="M748.5,84.3v12.4h-11.4V84.3H748.5 M756.3,75.8h-26.9v29.4h26.9V75.8L756.3,75.8z"/>
		<g>
			<rect x="550.4" y="374.9" class="st0" width="7.8" height="12.1"/>
			<rect x="566.8" y="374.9" class="st0" width="7.8" height="12.1"/>
			<rect x="583.2" y="374.9" class="st0" width="7.8" height="12.1"/>
			<rect x="599.5" y="374.9" class="st0" width="7.8" height="12.1"/>
			<rect x="615.9" y="374.9" class="st0" width="7.8" height="12.1"/>
			<rect x="632.3" y="374.9" class="st0" width="7.8" height="12.1"/>
			<rect x="648.6" y="374.9" class="st0" width="7.8" height="12.1"/>
			<rect x="665" y="374.9" class="st0" width="7.8" height="12.1"/>
			<rect x="681.3" y="374.9" class="st0" width="7.8" height="12.1"/>
		</g>
	</g>
</g>
</svg>
