<?xml version="1.0" encoding="utf-8"?>
<!-- Generator: Adobe Illustrator 25.4.1, SVG Export Plug-In . SVG Version: 6.00 Build 0)  -->
<svg version="1.1" id="_x2DC_รรฐ_x5F_1" xmlns="http://www.w3.org/2000/svg" xmlns:xlink="http://www.w3.org/1999/xlink" x="0px"
	 y="0px" viewBox="0 0 800 450" style="enable-background:new 0 0 800 450;" xml:space="preserve">
<style type="text/css">
	.st0{fill:#122038;}
	.st1{fill:#14233D;}
	.st2{fill:#D4E3FF;}
	.st3{clip-path:url(#SVGID_00000011716835464701896550000008021661604405174188_);}
	.st4{fill:#060414;}
</style>
<g>
	<rect class="st0" width="800" height="450"/>
	<path class="st1" d="M468.1,0c27.5,0-1.5,26.5-4,76.5c-2.5,50,36.5-7.5,71.5-42C570.7,0,624.5,4.8,654.6,9.2
		c30.1,4.5,81.2,12.2,102.7,7.2c21.5-5,30-16.5,30-16.5H468.1z"/>
	<path class="st1" d="M0,271c13.7,39,93.3,76,163.7,46.5c70.4-29.5,106.9,30,40.4,48S56.9,380.4,52.2,412.2
		c-4.7,31.8,38,37.8,38,37.8H0V271z"/>
	<path class="st1" d="M0,196.5c31.2,24.7,50.2,56.3,163.7,66.4s185.4-24,167.4,34.1c-18,58-49,117.6-115,100.8
		C150,381,116.8,450,116.8,450H800V0c0,0-21.8,56-97.8,28c-76-28-197.9-0.1-137,85.7c60.8,85.8,134.7,208,64.9,228.7
		S498.2,308,517.2,220c19-88-10-88.7-48-72.8c-38,15.8-64-8.2-38-61.2c26-53-31.6-21-135.9-8c-104.2,13-61.8-68,0-53
		S441.1,0,441.1,0H0V196.5z"/>
	<g>
		<path class="st2" d="M34.2,362.7l0.2,0.9c0.1,0.4,0.4,0.7,0.8,0.8l0.9,0.2l-0.9,0.2c-0.4,0.1-0.7,0.4-0.8,0.8l-0.2,0.9l-0.2-0.9
			c-0.1-0.4-0.4-0.7-0.8-0.8l-0.9-0.2l0.9-0.2c0.4-0.1,0.7-0.4,0.8-0.8L34.2,362.7z"/>
		<path class="st2" d="M542.3,369l0.2,0.9c0.1,0.4,0.4,0.7,0.8,0.8l0.9,0.2l-0.9,0.2c-0.4,0.1-0.7,0.4-0.8,0.8l-0.2,0.9l-0.2-0.9
			c-0.1-0.4-0.4-0.7-0.8-0.8l-0.9-0.2l0.9-0.2c0.4-0.1,0.7-0.4,0.8-0.8L542.3,369z"/>
		<path class="st2" d="M295.8,420l0.4,1.8c0.2,0.8,0.8,1.4,1.6,1.6l1.8,0.4l-1.8,0.4c-0.8,0.2-1.4,0.8-1.6,1.6l-0.4,1.8l-0.4-1.8
			c-0.2-0.8-0.8-1.4-1.6-1.6l-1.8-0.4l1.8-0.4c0.8-0.2,1.4-0.8,1.6-1.6L295.8,420z"/>
		<path class="st2" d="M508.8,405.5l0.3,1.5c0.1,0.6,0.6,1.2,1.3,1.3l1.5,0.3l-1.5,0.3c-0.7,0.1-1.2,0.6-1.3,1.3l-0.3,1.5l-0.3-1.5
			c-0.1-0.6-0.6-1.2-1.3-1.3l-1.5-0.3l1.5-0.3c0.6-0.1,1.2-0.6,1.3-1.3L508.8,405.5z"/>
		<path class="st2" d="M59,418.7l0.3,1.6c0.1,0.7,0.7,1.3,1.4,1.4l1.6,0.3l-1.6,0.3c-0.7,0.1-1.3,0.7-1.4,1.4l-0.3,1.6l-0.3-1.6
			c-0.1-0.7-0.7-1.3-1.4-1.4l-1.6-0.3l1.6-0.3c0.7-0.1,1.3-0.7,1.4-1.4L59,418.7z"/>
		<path class="st2" d="M56.7,38.5l0.4,2c0.2,0.9,0.8,1.5,1.7,1.7l2,0.4l-2,0.4c-0.9,0.2-1.5,0.8-1.7,1.7l-0.4,2l-0.4-2
			c-0.2-0.9-0.8-1.5-1.7-1.7l-2-0.4l2-0.4c0.9-0.2,1.5-0.8,1.7-1.7L56.7,38.5z"/>
		<path class="st2" d="M762.7,428.5l0.2,0.9c0.1,0.4,0.4,0.7,0.8,0.8l0.9,0.2l-0.9,0.2c-0.4,0.1-0.7,0.4-0.8,0.8l-0.2,0.9l-0.2-0.9
			c-0.1-0.4-0.4-0.7-0.8-0.8l-0.9-0.2l0.9-0.2c0.4-0.1,0.7-0.4,0.8-0.8L762.7,428.5z"/>
		<path class="st2" d="M678.8,47.9l0.4,1.9c0.2,0.8,0.8,1.5,1.6,1.6l1.9,0.4l-1.9,0.4c-0.8,0.2-1.5,0.8-1.6,1.6l-0.4,1.9l-0.4-1.9
			c-0.2-0.8-0.8-1.5-1.6-1.6l-1.9-0.4l1.9-0.4c0.8-0.2,1.5-0.8,1.6-1.6L678.8,47.9z"/>
		<path class="st2" d="M60.7,254.1l0.3,1.5c0.1,0.7,0.7,1.2,1.3,1.3l1.5,0.3l-1.5,0.3c-0.7,0.1-1.2,0.7-1.3,1.3l-0.3,1.5l-0.3-1.5
			c-0.1-0.7-0.7-1.2-1.3-1.3l-1.5-0.3l1.5-0.3c0.7-0.1,1.2-0.7,1.3-1.3L60.7,254.1z"/>
		<path class="st2" d="M191.4,372.8l0.5,2.3c0.2,1,1,1.8,2,2l2.3,0.5l-2.3,0.5c-1,0.2-1.8,1-2,2l-0.5,2.3l-0.5-2.3c-0.2-1-1-1.8-2-2
			l-2.3-0.5l2.3-0.5c1-0.2,1.8-1,2-2L191.4,372.8z"/>
		<path class="st2" d="M429.8,424.5l0.2,1c0.1,0.4,0.4,0.8,0.8,0.8l1,0.2l-1,0.2c-0.4,0.1-0.8,0.4-0.8,0.8l-0.2,1l-0.2-1
			c-0.1-0.4-0.4-0.8-0.8-0.8l-1-0.2l1-0.2c0.4-0.1,0.8-0.4,0.8-0.8L429.8,424.5z"/>
		<path class="st2" d="M667.2,378.2l0.4,1.7c0.2,0.8,0.8,1.4,1.5,1.5l1.7,0.4l-1.7,0.4c-0.8,0.2-1.4,0.8-1.5,1.5l-0.4,1.7l-0.4-1.7
			c-0.2-0.8-0.8-1.4-1.5-1.5l-1.7-0.4l1.7-0.4c0.8-0.2,1.4-0.8,1.5-1.5L667.2,378.2z"/>
		<path class="st2" d="M431.8,387.8l0.2,0.9c0.1,0.4,0.4,0.7,0.8,0.8l0.9,0.2l-0.9,0.2c-0.4,0.1-0.7,0.4-0.8,0.8l-0.2,0.9l-0.2-0.9
			c-0.1-0.4-0.4-0.7-0.8-0.8l-0.9-0.2l0.9-0.2c0.4-0.1,0.7-0.4,0.8-0.8L431.8,387.8z"/>
		<path class="st2" d="M29.8,201.7l0.5,2.4c0.2,1.1,1,1.9,2.1,2.1l2.4,0.5l-2.4,0.5c-1.1,0.2-1.9,1-2.1,2.1l-0.5,2.4l-0.5-2.4
			c-0.2-1.1-1-1.9-2.1-2.1l-2.4-0.5l2.4-0.5c1.1-0.2,1.9-1,2.1-2.1L29.8,201.7z"/>
		<path class="st2" d="M242.2,38.9l0.2,0.9c0.1,0.4,0.4,0.7,0.8,0.8l0.9,0.2l-0.9,0.2c-0.4,0.1-0.7,0.4-0.8,0.8l-0.2,0.9l-0.2-0.9
			c-0.1-0.4-0.4-0.7-0.8-0.8l-0.9-0.2l0.9-0.2c0.4-0.1,0.7-0.4,0.8-0.8L242.2,38.9z"/>
		<path class="st2" d="M775.5,373.8l0.2,1.1c0.1,0.5,0.5,0.9,1,1l1.1,0.2l-1.1,0.2c-0.5,0.1-0.9,0.5-1,1l-0.2,1.1l-0.2-1.1
			c-0.1-0.5-0.5-0.9-1-1l-1.1-0.2l1.1-0.2c0.5-0.1,0.9-0.5,1-1L775.5,373.8z"/>
		<path class="st2" d="M71.9,101l0.2,0.9c0.1,0.4,0.4,0.7,0.8,0.8l0.9,0.2l-0.9,0.2c-0.4,0.1-0.7,0.4-0.8,0.8l-0.2,0.9l-0.2-0.9
			c-0.1-0.4-0.4-0.7-0.8-0.8l-0.9-0.2l0.9-0.2c0.4-0.1,0.7-0.4,0.8-0.8L71.9,101z"/>
		<path class="st2" d="M153.8,43.9l0.3,1.5c0.1,0.6,0.6,1.1,1.3,1.3l1.5,0.3l-1.5,0.3c-0.6,0.1-1.1,0.6-1.3,1.3l-0.3,1.5l-0.3-1.5
			c-0.1-0.6-0.6-1.1-1.3-1.3l-1.5-0.3l1.5-0.3c0.6-0.1,1.1-0.6,1.3-1.3L153.8,43.9z"/>
		<path class="st2" d="M601.3,194.6l0.4,2c0.2,0.9,0.9,1.6,1.8,1.8l2,0.4l-2,0.4c-0.9,0.2-1.6,0.9-1.8,1.8l-0.4,2l-0.4-2
			c-0.2-0.9-0.9-1.6-1.8-1.8l-2-0.4l2-0.4c0.9-0.2,1.6-0.9,1.8-1.8L601.3,194.6z"/>
		<path class="st2" d="M421.1,34.6l0.2,0.9c0.1,0.4,0.4,0.7,0.8,0.8l0.9,0.2l-0.9,0.2c-0.4,0.1-0.7,0.4-0.8,0.8l-0.2,0.9l-0.2-0.9
			c-0.1-0.4-0.4-0.7-0.8-0.8l-0.9-0.2l0.9-0.2c0.4-0.1,0.7-0.4,0.8-0.8L421.1,34.6z"/>
		<path class="st2" d="M237.9,389.7l0.2,1.1c0.1,0.5,0.5,0.8,0.9,0.9l1.1,0.2l-1.1,0.2c-0.5,0.1-0.8,0.5-0.9,0.9l-0.2,1.1l-0.2-1.1
			c-0.1-0.5-0.5-0.8-0.9-0.9l-1.1-0.2l1.1-0.2c0.5-0.1,0.8-0.5,0.9-0.9L237.9,389.7z"/>
		<path class="st2" d="M272.4,27.4l0.4,2.1c0.2,0.9,0.9,1.6,1.8,1.8l2.1,0.4l-2.1,0.4c-0.9,0.2-1.6,0.9-1.8,1.8l-0.4,2.1L272,34
			c-0.2-0.9-0.9-1.6-1.8-1.8l-2.1-0.4l2.1-0.4c0.9-0.2,1.6-0.9,1.8-1.8L272.4,27.4z"/>
		<path class="st2" d="M712.2,361.2l0.5,2.4c0.2,1.1,1,1.9,2.1,2.1l2.4,0.5l-2.4,0.5c-1.1,0.2-1.9,1-2.1,2.1l-0.5,2.4l-0.5-2.4
			c-0.2-1.1-1-1.9-2.1-2.1l-2.4-0.5l2.4-0.5c1.1-0.2,1.9-1,2.1-2.1L712.2,361.2z"/>
		<path class="st2" d="M38.5,429.4l0.2,1c0.1,0.4,0.4,0.8,0.9,0.9l1,0.2l-1,0.2c-0.4,0.1-0.8,0.4-0.9,0.9l-0.2,1l-0.2-1
			c-0.1-0.4-0.4-0.8-0.9-0.9l-1-0.2l1-0.2c0.4-0.1,0.8-0.4,0.9-0.9L38.5,429.4z"/>
		<path class="st2" d="M751.8,304.7l0.5,2.3c0.2,1,1,1.8,2,2l2.3,0.5l-2.3,0.5c-1,0.2-1.8,1-2,2l-0.5,2.3l-0.5-2.3c-0.2-1-1-1.8-2-2
			l-2.3-0.5l2.3-0.5c1-0.2,1.8-1,2-2L751.8,304.7z"/>
		<path class="st2" d="M541.8,80.2l0.3,1.7c0.2,0.7,0.7,1.3,1.5,1.5l1.7,0.3l-1.7,0.3c-0.7,0.2-1.3,0.7-1.5,1.5l-0.3,1.7l-0.3-1.7
			c-0.2-0.7-0.7-1.3-1.5-1.5l-1.7-0.3l1.7-0.3c0.7-0.2,1.3-0.7,1.5-1.5L541.8,80.2z"/>
		<path class="st2" d="M333,31.1l0.3,1.7c0.2,0.7,0.7,1.3,1.4,1.4l1.7,0.3l-1.7,0.3c-0.7,0.2-1.3,0.7-1.4,1.4l-0.3,1.7l-0.3-1.7
			c-0.2-0.7-0.7-1.3-1.4-1.4l-1.7-0.3l1.7-0.3c0.7-0.2,1.3-0.7,1.4-1.4L333,31.1z"/>
		<path class="st2" d="M140.8,328.1l0.2,1c0.1,0.4,0.4,0.8,0.9,0.9l1,0.2l-1,0.2c-0.4,0.1-0.8,0.4-0.9,0.9l-0.2,1l-0.2-1
			c-0.1-0.4-0.4-0.8-0.9-0.9l-1-0.2l1-0.2c0.4-0.1,0.8-0.4,0.9-0.9L140.8,328.1z"/>
		<path class="st2" d="M65.4,132.2l0.2,1c0.1,0.4,0.4,0.8,0.8,0.8l1,0.2l-1,0.2c-0.4,0.1-0.8,0.4-0.8,0.8l-0.2,1l-0.2-1
			c-0.1-0.4-0.4-0.8-0.8-0.8l-1-0.2l1-0.2c0.4-0.1,0.8-0.4,0.8-0.8L65.4,132.2z"/>
		<path class="st2" d="M755.1,69.6l0.3,1.4c0.1,0.6,0.6,1.1,1.2,1.2l1.4,0.3l-1.4,0.3c-0.6,0.1-1.1,0.6-1.2,1.2l-0.3,1.4l-0.3-1.4
			c-0.1-0.6-0.6-1.1-1.2-1.2l-1.4-0.3l1.4-0.3c0.6-0.1,1.1-0.6,1.2-1.2L755.1,69.6z"/>
		<path class="st2" d="M142.9,275.6l0.3,1.5c0.1,0.7,0.7,1.2,1.3,1.3l1.5,0.3l-1.5,0.3c-0.7,0.1-1.2,0.7-1.3,1.3l-0.3,1.5l-0.3-1.5
			c-0.1-0.7-0.7-1.2-1.3-1.3l-1.5-0.3l1.5-0.3c0.7-0.1,1.2-0.7,1.3-1.3L142.9,275.6z"/>
		<path class="st2" d="M713.5,260.3l0.4,2c0.2,0.9,0.9,1.6,1.8,1.8l2,0.4l-2,0.4c-0.9,0.2-1.6,0.9-1.8,1.8l-0.4,2l-0.4-2
			c-0.2-0.9-0.9-1.6-1.8-1.8l-2-0.4l2-0.4c0.9-0.2,1.6-0.9,1.8-1.8L713.5,260.3z"/>
		<path class="st2" d="M43.7,99.5l0.4,1.9c0.2,0.8,0.8,1.5,1.7,1.7l1.9,0.4l-1.9,0.4c-0.8,0.2-1.5,0.8-1.7,1.7l-0.4,1.9l-0.4-1.9
			c-0.2-0.8-0.8-1.5-1.7-1.7l-1.9-0.4l1.9-0.4c0.8-0.2,1.5-0.8,1.7-1.7L43.7,99.5z"/>
		<path class="st2" d="M457,44.8l0.3,1.4c0.1,0.6,0.6,1.1,1.3,1.3l1.4,0.3l-1.4,0.3c-0.6,0.1-1.1,0.6-1.3,1.3l-0.3,1.4l-0.3-1.4
			c-0.1-0.6-0.6-1.1-1.3-1.3l-1.4-0.3l1.4-0.3c0.6-0.1,1.1-0.6,1.3-1.3L457,44.8z"/>
		<path class="st2" d="M129.8,198.6l0.4,2.1c0.2,0.9,0.9,1.7,1.8,1.8l2.1,0.4l-2.1,0.4c-0.9,0.2-1.7,0.9-1.8,1.8l-0.4,2.1l-0.4-2.1
			c-0.2-0.9-0.9-1.7-1.8-1.8l-2.1-0.4l2.1-0.4c0.9-0.2,1.7-0.9,1.8-1.8L129.8,198.6z"/>
		<path class="st2" d="M764.3,237.3l0.3,1.5c0.1,0.7,0.7,1.2,1.3,1.3l1.5,0.3l-1.5,0.3c-0.7,0.1-1.2,0.7-1.3,1.3l-0.3,1.5l-0.3-1.5
			c-0.1-0.7-0.7-1.2-1.3-1.3l-1.5-0.3l1.5-0.3c0.7-0.1,1.2-0.7,1.3-1.3L764.3,237.3z"/>
		<path class="st2" d="M135.3,406l0.2,1c0.1,0.4,0.4,0.8,0.9,0.9l1,0.2l-1,0.2c-0.4,0.1-0.8,0.4-0.9,0.9l-0.2,1l-0.2-1
			c-0.1-0.4-0.4-0.8-0.9-0.9l-1-0.2l1-0.2c0.4-0.1,0.8-0.4,0.9-0.9L135.3,406z"/>
		<path class="st2" d="M782.5,151.7l0.4,2.1c0.2,0.9,0.9,1.6,1.8,1.8l2.1,0.4l-2.1,0.4c-0.9,0.2-1.6,0.9-1.8,1.8l-0.4,2.1l-0.4-2.1
			c-0.2-0.9-0.9-1.6-1.8-1.8l-2.1-0.4l2.1-0.4c0.9-0.2,1.6-0.9,1.8-1.8L782.5,151.7z"/>
		<path class="st2" d="M126.1,124.1l0.2,1c0.1,0.4,0.4,0.8,0.9,0.9l1,0.2l-1,0.2c-0.4,0.1-0.8,0.4-0.9,0.9l-0.2,1l-0.2-1
			c-0.1-0.4-0.4-0.8-0.9-0.9l-1-0.2l1-0.2c0.4-0.1,0.8-0.4,0.9-0.9L126.1,124.1z"/>
		<path class="st2" d="M572.7,409l0.4,2c0.2,0.9,0.9,1.5,1.7,1.7l2,0.4l-2,0.4c-0.9,0.2-1.5,0.9-1.7,1.7l-0.4,2l-0.4-2
			c-0.2-0.9-0.9-1.5-1.7-1.7l-2-0.4l2-0.4c0.9-0.2,1.5-0.9,1.7-1.7L572.7,409z"/>
		<path class="st2" d="M709.4,192.4l0.2,0.9c0.1,0.4,0.4,0.7,0.8,0.8l0.9,0.2l-0.9,0.2c-0.4,0.1-0.7,0.4-0.8,0.8l-0.2,0.9l-0.2-0.9
			c-0.1-0.4-0.4-0.7-0.8-0.8l-0.9-0.2l0.9-0.2c0.4-0.1,0.7-0.4,0.8-0.8L709.4,192.4z"/>
		<path class="st2" d="M682.3,145.6l0.4,1.7c0.2,0.8,0.8,1.4,1.5,1.5l1.7,0.4l-1.7,0.4c-0.8,0.2-1.4,0.8-1.5,1.5l-0.4,1.7l-0.4-1.7
			c-0.2-0.8-0.8-1.4-1.5-1.5l-1.7-0.4l1.7-0.4c0.8-0.2,1.4-0.8,1.5-1.5L682.3,145.6z"/>
	</g>
	<g>
		<defs>
			<rect id="SVGID_1_" width="800" height="450"/>
		</defs>
		<clipPath id="SVGID_00000019669230456632017380000018214375900803488388_">
			<use xlink:href="#SVGID_1_"  style="overflow:visible;"/>
		</clipPath>
		<g style="clip-path:url(#SVGID_00000019669230456632017380000018214375900803488388_);">
			<path class="st2" d="M92.2,414.2c0-0.4,0.3-0.7,0.7-0.7c0.4,0,0.7,0.3,0.7,0.7c0,0.4-0.3,0.7-0.7,0.7
				C92.5,414.9,92.2,414.6,92.2,414.2z"/>
			<path class="st2" d="M221.3,403.3c0-0.8,0.7-1.5,1.5-1.5c0.8,0,1.5,0.7,1.5,1.5s-0.7,1.5-1.5,1.5
				C222,404.8,221.3,404.1,221.3,403.3z"/>
			<path class="st2" d="M365.3,1.1c0-0.2,0.2-0.4,0.4-0.4c0.2,0,0.4,0.2,0.4,0.4c0,0.2-0.2,0.4-0.4,0.4
				C365.5,1.5,365.3,1.4,365.3,1.1z"/>
			<path class="st2" d="M344.5,428.9c0-0.4,0.4-0.8,0.8-0.8s0.8,0.4,0.8,0.8c0,0.4-0.4,0.8-0.8,0.8S344.5,429.4,344.5,428.9z"/>
			<path class="st2" d="M91.2,41.2c0-0.2,0.2-0.4,0.4-0.4c0.2,0,0.4,0.2,0.4,0.4s-0.2,0.4-0.4,0.4C91.4,41.7,91.2,41.5,91.2,41.2z"
				/>
			<path class="st2" d="M288,364.5c0-0.3,0.2-0.5,0.5-0.5c0.3,0,0.5,0.2,0.5,0.5c0,0.3-0.2,0.5-0.5,0.5
				C288.3,364.9,288,364.7,288,364.5z"/>
			<path class="st2" d="M88,70.4c0-1,0.8-1.7,1.7-1.7c1,0,1.7,0.8,1.7,1.7c0,1-0.8,1.7-1.7,1.7C88.8,72.2,88,71.4,88,70.4z"/>
			<circle class="st2" cx="263.1" cy="52.2" r="0.9"/>
			<path class="st2" d="M787.4,182.2c0-0.3,0.2-0.5,0.5-0.5c0.3,0,0.5,0.2,0.5,0.5c0,0.3-0.2,0.5-0.5,0.5
				C787.6,182.7,787.4,182.5,787.4,182.2z"/>
			<path class="st2" d="M768.6,195.1c0-0.4,0.4-0.8,0.8-0.8c0.4,0,0.8,0.4,0.8,0.8c0,0.4-0.4,0.8-0.8,0.8
				C769,195.9,768.6,195.5,768.6,195.1z"/>
			<path class="st2" d="M732.4,272.5c0-0.4,0.4-0.8,0.8-0.8c0.4,0,0.8,0.4,0.8,0.8c0,0.4-0.4,0.8-0.8,0.8
				C732.8,273.3,732.4,272.9,732.4,272.5z"/>
			<path class="st2" d="M152.8,192.6c0-0.5,0.4-0.8,0.8-0.8c0.5,0,0.8,0.4,0.8,0.8s-0.4,0.8-0.8,0.8
				C153.2,193.4,152.8,193,152.8,192.6z"/>
			<path class="st2" d="M119.8,223.3c0-0.3,0.2-0.6,0.6-0.6c0.3,0,0.6,0.2,0.6,0.6c0,0.3-0.2,0.6-0.6,0.6
				C120,223.9,119.8,223.6,119.8,223.3z"/>
			<path class="st2" d="M99.5,298.1c0-0.8,0.7-1.5,1.5-1.5c0.8,0,1.5,0.7,1.5,1.5c0,0.8-0.7,1.5-1.5,1.5
				C100.2,299.6,99.5,299,99.5,298.1z"/>
			<path class="st2" d="M470.2,74c0-0.6,0.5-1,1-1c0.6,0,1,0.5,1,1c0,0.6-0.5,1-1,1C470.6,75.1,470.2,74.6,470.2,74z"/>
			<path class="st2" d="M482.5,45.5c0-1,0.8-1.8,1.8-1.8c1,0,1.8,0.8,1.8,1.8s-0.8,1.8-1.8,1.8C483.3,47.3,482.5,46.5,482.5,45.5z"
				/>
			<path class="st2" d="M743.7,260.7c0-0.3,0.3-0.6,0.6-0.6s0.6,0.3,0.6,0.6c0,0.3-0.3,0.6-0.6,0.6S743.7,261.1,743.7,260.7z"/>
			<path class="st2" d="M602.4,438.5c0-1.1,0.9-2,2-2c1.1,0,2,0.9,2,2s-0.9,2-2,2C603.2,440.5,602.4,439.6,602.4,438.5z"/>
			<path class="st2" d="M258.2,360.4c0-0.8,0.7-1.5,1.5-1.5c0.8,0,1.5,0.7,1.5,1.5s-0.7,1.5-1.5,1.5
				C258.8,361.8,258.2,361.2,258.2,360.4z"/>
			<path class="st2" d="M583.3,123.4c0-0.8,0.7-1.5,1.5-1.5c0.8,0,1.5,0.7,1.5,1.5s-0.7,1.5-1.5,1.5
				C583.9,124.9,583.3,124.2,583.3,123.4z"/>
			<path class="st2" d="M607.2,400.4c0-0.3,0.2-0.6,0.6-0.6c0.3,0,0.6,0.2,0.6,0.6c0,0.3-0.2,0.6-0.6,0.6
				C607.5,401,607.2,400.7,607.2,400.4z"/>
			<path class="st2" d="M739.8,400c0-0.8,0.6-1.4,1.4-1.4c0.8,0,1.4,0.6,1.4,1.4s-0.6,1.4-1.4,1.4
				C740.4,401.4,739.8,400.8,739.8,400z"/>
			<path class="st2" d="M427.2,26.4c0-0.2,0.2-0.4,0.4-0.4c0.2,0,0.4,0.2,0.4,0.4c0,0.2-0.2,0.4-0.4,0.4
				C427.4,26.8,427.2,26.6,427.2,26.4z"/>
			<path class="st2" d="M653.5,94.9c0-0.4,0.3-0.8,0.8-0.8c0.4,0,0.8,0.3,0.8,0.8s-0.3,0.8-0.8,0.8
				C653.8,95.7,653.5,95.3,653.5,94.9z"/>
			<path class="st2" d="M767.9,240.4c0-0.3,0.2-0.5,0.5-0.5c0.3,0,0.5,0.2,0.5,0.5s-0.2,0.5-0.5,0.5
				C768.1,240.9,767.9,240.7,767.9,240.4z"/>
			<path class="st2" d="M687.7,448.3c0-0.2,0.2-0.4,0.4-0.4c0.2,0,0.4,0.2,0.4,0.4c0,0.2-0.2,0.4-0.4,0.4
				C687.9,448.7,687.7,448.6,687.7,448.3z"/>
			<path class="st2" d="M234,2.4c0-0.2,0.2-0.4,0.4-0.4c0.2,0,0.4,0.2,0.4,0.4c0,0.2-0.2,0.4-0.4,0.4C234.2,2.8,234,2.6,234,2.4z"/>
			<path class="st2" d="M410.5,61.8c0-0.8,0.6-1.4,1.4-1.4c0.8,0,1.4,0.6,1.4,1.4s-0.6,1.4-1.4,1.4
				C411.1,63.1,410.5,62.5,410.5,61.8z"/>
			<path class="st2" d="M632.6,103c0-0.4,0.3-0.7,0.7-0.7c0.4,0,0.7,0.3,0.7,0.7c0,0.4-0.3,0.7-0.7,0.7
				C632.9,103.7,632.6,103.4,632.6,103z"/>
			<path class="st2" d="M126.1,343.7c0-1.1,0.9-2,2-2c1.1,0,2,0.9,2,2s-0.9,2-2,2C126.9,345.7,126.1,344.8,126.1,343.7z"/>
			<path class="st2" d="M629.6,448.8c0-0.5,0.4-0.8,0.8-0.8s0.8,0.4,0.8,0.8s-0.4,0.8-0.8,0.8S629.6,449.3,629.6,448.8z"/>
			<path class="st2" d="M292.8,8.7c0-0.3,0.2-0.5,0.5-0.5c0.3,0,0.5,0.2,0.5,0.5c0,0.3-0.2,0.5-0.5,0.5C293,9.2,292.8,9,292.8,8.7z"
				/>
			<path class="st2" d="M101.4,150.3c0-0.7,0.5-1.2,1.2-1.2c0.7,0,1.2,0.5,1.2,1.2c0,0.7-0.5,1.2-1.2,1.2
				C101.9,151.5,101.4,151,101.4,150.3z"/>
			<path class="st2" d="M781,228.8c0-0.8,0.6-1.4,1.4-1.4s1.4,0.6,1.4,1.4c0,0.8-0.6,1.4-1.4,1.4S781,229.6,781,228.8z"/>
			<path class="st2" d="M699.6,272.2c0-0.5,0.4-0.9,0.9-0.9c0.5,0,0.9,0.4,0.9,0.9c0,0.5-0.4,0.9-0.9,0.9
				C700,273.1,699.6,272.7,699.6,272.2z"/>
			<path class="st2" d="M165.2,336.8c0-0.5,0.4-0.9,0.9-0.9s0.9,0.4,0.9,0.9c0,0.5-0.4,0.9-0.9,0.9S165.2,337.3,165.2,336.8z"/>
			<path class="st2" d="M141.1,156.2c0-0.9,0.8-1.7,1.7-1.7c0.9,0,1.7,0.8,1.7,1.7c0,0.9-0.8,1.7-1.7,1.7
				C141.8,157.9,141.1,157.1,141.1,156.2z"/>
			<path class="st2" d="M125.6,275.9c0-0.3,0.2-0.5,0.5-0.5c0.3,0,0.5,0.2,0.5,0.5c0,0.3-0.2,0.5-0.5,0.5
				C125.8,276.5,125.6,276.2,125.6,275.9z"/>
			<path class="st2" d="M205.7,361.1c0-0.5,0.4-0.9,0.9-0.9c0.5,0,0.9,0.4,0.9,0.9s-0.4,0.9-0.9,0.9
				C206.1,362,205.7,361.6,205.7,361.1z"/>
			<path class="st2" d="M690.2,164.9c0-0.2,0.2-0.4,0.4-0.4c0.2,0,0.4,0.2,0.4,0.4c0,0.2-0.2,0.4-0.4,0.4
				C690.4,165.3,690.2,165.1,690.2,164.9z"/>
			<path class="st2" d="M163.1,135c0-0.6,0.5-1.1,1.1-1.1c0.6,0,1.1,0.5,1.1,1.1c0,0.6-0.5,1.1-1.1,1.1
				C163.6,136.1,163.1,135.6,163.1,135z"/>
			<circle class="st2" cx="17.8" cy="339.7" r="0.5"/>
			<path class="st2" d="M583.2,427.1c0-0.4,0.4-0.8,0.8-0.8c0.4,0,0.8,0.4,0.8,0.8s-0.4,0.8-0.8,0.8
				C583.6,427.9,583.2,427.6,583.2,427.1z"/>
			<path class="st2" d="M407,387.3c0-1,0.8-1.8,1.8-1.8c1,0,1.8,0.8,1.8,1.8c0,1-0.8,1.8-1.8,1.8C407.8,389.1,407,388.3,407,387.3z"
				/>
			<path class="st2" d="M385.4,440.1c0-0.3,0.2-0.5,0.5-0.5c0.3,0,0.5,0.2,0.5,0.5c0,0.3-0.2,0.5-0.5,0.5
				C385.6,440.6,385.4,440.4,385.4,440.1z"/>
			<path class="st2" d="M-0.1,88.5c0-0.4,0.3-0.7,0.7-0.7c0.4,0,0.7,0.3,0.7,0.7c0,0.4-0.3,0.7-0.7,0.7C0.2,89.1-0.1,88.8-0.1,88.5z
				"/>
			<path class="st2" d="M27.4,286.2c0-0.6,0.5-1.1,1.1-1.1c0.6,0,1.1,0.5,1.1,1.1c0,0.6-0.5,1.1-1.1,1.1
				C27.9,287.3,27.4,286.8,27.4,286.2z"/>
			<path class="st2" d="M777.1,2c0-0.7,0.6-1.3,1.3-1.3c0.7,0,1.3,0.6,1.3,1.3c0,0.7-0.6,1.3-1.3,1.3C777.7,3.3,777.1,2.7,777.1,2z"
				/>
			<path class="st2" d="M49,439.9c0-0.6,0.5-1.1,1.1-1.1c0.6,0,1.1,0.5,1.1,1.1c0,0.6-0.5,1.1-1.1,1.1C49.6,441.1,49,440.6,49,439.9
				z"/>
			<path class="st2" d="M46.6,413.3c0-1.1,0.9-1.9,1.9-1.9c1.1,0,1.9,0.9,1.9,1.9c0,1.1-0.9,1.9-1.9,1.9
				C47.4,415.2,46.6,414.3,46.6,413.3z"/>
			<path class="st2" d="M761.6,272.5c0-1,0.8-1.8,1.8-1.8s1.8,0.8,1.8,1.8c0,1-0.8,1.8-1.8,1.8S761.6,273.5,761.6,272.5z"/>
			<path class="st2" d="M170.2,374.3c0-0.2,0.2-0.4,0.4-0.4c0.2,0,0.4,0.2,0.4,0.4c0,0.2-0.2,0.4-0.4,0.4
				C170.4,374.7,170.2,374.5,170.2,374.3z"/>
			<path class="st2" d="M741.1,125.2c0-1.1,0.9-2,2-2c1.1,0,2,0.9,2,2s-0.9,2-2,2C742,127.2,741.1,126.3,741.1,125.2z"/>
			<path class="st2" d="M55.5,142.1c0-0.4,0.3-0.6,0.6-0.6c0.4,0,0.6,0.3,0.6,0.6c0,0.4-0.3,0.6-0.6,0.6
				C55.8,142.8,55.5,142.5,55.5,142.1z"/>
			<path class="st2" d="M743.1,438.8c0-0.8,0.7-1.5,1.5-1.5c0.8,0,1.5,0.7,1.5,1.5s-0.7,1.5-1.5,1.5
				C743.8,440.4,743.1,439.7,743.1,438.8z"/>
			<path class="st2" d="M72.7,28.6c0-1.1,0.9-2,2-2c1.1,0,2,0.9,2,2c0,1.1-0.9,2-2,2C73.6,30.5,72.7,29.7,72.7,28.6z"/>
			<path class="st2" d="M533.3,58c0-0.8,0.7-1.5,1.5-1.5c0.8,0,1.5,0.7,1.5,1.5c0,0.8-0.7,1.5-1.5,1.5C534,59.6,533.3,58.9,533.3,58
				z"/>
			<path class="st2" d="M596.7-0.6c0-0.4,0.4-0.8,0.8-0.8c0.4,0,0.8,0.4,0.8,0.8c0,0.4-0.4,0.8-0.8,0.8
				C597.1,0.2,596.7-0.1,596.7-0.6z"/>
			<path class="st2" d="M597.7,317.1c0-0.2,0.2-0.4,0.4-0.4c0.2,0,0.4,0.2,0.4,0.4c0,0.2-0.2,0.4-0.4,0.4
				C597.9,317.5,597.7,317.3,597.7,317.1z"/>
			<path class="st2" d="M25.1,174.4c0-1,0.8-1.8,1.8-1.8s1.8,0.8,1.8,1.8s-0.8,1.8-1.8,1.8S25.1,175.4,25.1,174.4z"/>
			<circle class="st2" cx="148.6" cy="434.6" r="0.6"/>
			<path class="st2" d="M257.5,0.2c0-1,0.8-1.8,1.8-1.8c1,0,1.8,0.8,1.8,1.8c0,1-0.8,1.8-1.8,1.8C258.3,2,257.5,1.2,257.5,0.2z"/>
			<path class="st2" d="M265.3,387c0-0.3,0.3-0.6,0.6-0.6c0.3,0,0.6,0.3,0.6,0.6c0,0.3-0.3,0.6-0.6,0.6
				C265.5,387.5,265.3,387.3,265.3,387z"/>
			<path class="st2" d="M586,20.8c0-0.5,0.4-0.9,0.9-0.9c0.5,0,0.9,0.4,0.9,0.9c0,0.5-0.4,0.9-0.9,0.9C586.4,21.8,586,21.3,586,20.8
				z"/>
			<path class="st2" d="M359.2,415.5c0-0.3,0.3-0.6,0.6-0.6c0.3,0,0.6,0.3,0.6,0.6c0,0.3-0.3,0.6-0.6,0.6
				C359.4,416.1,359.2,415.9,359.2,415.5z"/>
			<path class="st2" d="M212.9,279.8c0-0.2,0.2-0.4,0.4-0.4c0.2,0,0.4,0.2,0.4,0.4c0,0.2-0.2,0.4-0.4,0.4
				C213.1,280.2,212.9,280,212.9,279.8z"/>
			<path class="st2" d="M338.4,4.5c0-0.7,0.5-1.2,1.2-1.2c0.7,0,1.2,0.5,1.2,1.2c0,0.7-0.5,1.2-1.2,1.2
				C338.9,5.7,338.4,5.1,338.4,4.5z"/>
			<path class="st2" d="M471.2,425.7c0-0.3,0.2-0.5,0.5-0.5c0.3,0,0.5,0.2,0.5,0.5c0,0.3-0.2,0.5-0.5,0.5
				C471.4,426.2,471.2,426,471.2,425.7z"/>
			<path class="st2" d="M26.8,82.5c0-0.9,0.7-1.6,1.6-1.6c0.9,0,1.6,0.7,1.6,1.6c0,0.9-0.7,1.6-1.6,1.6
				C27.5,84.1,26.8,83.4,26.8,82.5z"/>
			<path class="st2" d="M346.3,56.3c0-0.3,0.2-0.5,0.5-0.5c0.3,0,0.5,0.2,0.5,0.5c0,0.3-0.2,0.5-0.5,0.5
				C346.5,56.8,346.3,56.5,346.3,56.3z"/>
			<path class="st2" d="M590.1,66.9c0-0.7,0.6-1.3,1.3-1.3s1.3,0.6,1.3,1.3c0,0.7-0.6,1.3-1.3,1.3S590.1,67.6,590.1,66.9z"/>
			<path class="st2" d="M206.5,391.3c0-0.3,0.3-0.6,0.6-0.6c0.3,0,0.6,0.3,0.6,0.6c0,0.3-0.3,0.6-0.6,0.6
				C206.7,391.9,206.5,391.6,206.5,391.3z"/>
			<path class="st2" d="M603.3,374c0-0.2,0.2-0.4,0.4-0.4c0.2,0,0.4,0.2,0.4,0.4c0,0.2-0.2,0.4-0.4,0.4
				C603.5,374.4,603.3,374.2,603.3,374z"/>
			<path class="st2" d="M634.5,280.2c0-0.3,0.3-0.6,0.6-0.6c0.3,0,0.6,0.3,0.6,0.6c0,0.3-0.3,0.6-0.6,0.6
				C634.8,280.8,634.5,280.5,634.5,280.2z"/>
			<path class="st2" d="M662.1,426.2c0-1,0.8-1.9,1.9-1.9c1,0,1.9,0.8,1.9,1.9c0,1-0.8,1.9-1.9,1.9
				C662.9,428.1,662.1,427.2,662.1,426.2z"/>
			<path class="st2" d="M787.3,433.2c0-0.8,0.6-1.4,1.4-1.4c0.8,0,1.4,0.6,1.4,1.4s-0.6,1.4-1.4,1.4
				C787.9,434.6,787.3,434,787.3,433.2z"/>
			<path class="st2" d="M48.3,84.9c0-0.2,0.2-0.4,0.4-0.4c0.2,0,0.4,0.2,0.4,0.4s-0.2,0.4-0.4,0.4C48.5,85.3,48.3,85.1,48.3,84.9z"
				/>
			<path class="st2" d="M336.4,336c0-0.3,0.2-0.5,0.5-0.5c0.3,0,0.5,0.2,0.5,0.5c0,0.3-0.2,0.5-0.5,0.5
				C336.6,336.4,336.4,336.2,336.4,336z"/>
			<circle class="st2" cx="714" cy="137.5" r="0.4"/>
			<path class="st2" d="M756,165.5c0-0.9,0.7-1.7,1.7-1.7c0.9,0,1.7,0.7,1.7,1.7s-0.7,1.7-1.7,1.7C756.7,167.1,756,166.4,756,165.5z
				"/>
			<circle class="st2" cx="279" cy="76" r="0.5"/>
			<circle class="st2" cx="254.9" cy="337.5" r="0.4"/>
			<path class="st2" d="M400.8,23.1c0-1.1,0.9-1.9,1.9-1.9c1.1,0,1.9,0.9,1.9,1.9s-0.9,1.9-1.9,1.9C401.7,25,400.8,24.1,400.8,23.1z
				"/>
			<path class="st2" d="M768.5,444.3c0-0.6,0.5-1.1,1.1-1.1c0.6,0,1.1,0.5,1.1,1.1s-0.5,1.1-1.1,1.1
				C769,445.5,768.5,445,768.5,444.3z"/>
			<path class="st2" d="M493.9,386c0-0.2,0.2-0.4,0.4-0.4c0.2,0,0.4,0.2,0.4,0.4s-0.2,0.4-0.4,0.4
				C494.1,386.4,493.9,386.2,493.9,386z"/>
			<path class="st2" d="M759.7,356.5c0-0.8,0.7-1.5,1.5-1.5s1.5,0.7,1.5,1.5s-0.7,1.5-1.5,1.5S759.7,357.3,759.7,356.5z"/>
			<path class="st2" d="M185,397c0-0.2,0.2-0.4,0.4-0.4c0.2,0,0.4,0.2,0.4,0.4c0,0.2-0.2,0.4-0.4,0.4C185.2,397.4,185,397.2,185,397
				z"/>
			<path class="st2" d="M712.7,182.3c0-0.9,0.7-1.7,1.7-1.7s1.7,0.7,1.7,1.7s-0.7,1.7-1.7,1.7S712.7,183.2,712.7,182.3z"/>
			<path class="st2" d="M88.8,243.3c0-0.5,0.4-1,1-1c0.5,0,1,0.4,1,1s-0.4,1-1,1C89.2,244.3,88.8,243.9,88.8,243.3z"/>
			<path class="st2" d="M691.4,408.1c0-0.8,0.7-1.5,1.5-1.5c0.8,0,1.5,0.7,1.5,1.5s-0.7,1.5-1.5,1.5
				C692,409.6,691.4,408.9,691.4,408.1z"/>
			<path class="st2" d="M362.2,72.4c0-0.4,0.3-0.7,0.7-0.7c0.4,0,0.7,0.3,0.7,0.7c0,0.4-0.3,0.7-0.7,0.7
				C362.6,73.1,362.2,72.8,362.2,72.4z"/>
			<path class="st2" d="M308.5,444.5c0-0.6,0.5-1,1-1c0.6,0,1,0.5,1,1s-0.5,1-1,1C309,445.5,308.5,445,308.5,444.5z"/>
			<path class="st2" d="M270.7,431.5c0-0.3,0.3-0.6,0.6-0.6c0.3,0,0.6,0.3,0.6,0.6c0,0.3-0.3,0.6-0.6,0.6
				C270.9,432.1,270.7,431.8,270.7,431.5z"/>
			<path class="st2" d="M727.5,327.9c0-0.6,0.5-1.1,1.1-1.1c0.6,0,1.1,0.5,1.1,1.1c0,0.6-0.5,1.1-1.1,1.1
				C728.1,329,727.5,328.5,727.5,327.9z"/>
			<path class="st2" d="M769.5,297.4c0-0.3,0.2-0.5,0.5-0.5s0.5,0.2,0.5,0.5c0,0.3-0.2,0.5-0.5,0.5S769.5,297.7,769.5,297.4z"/>
			<path class="st2" d="M405.2,92.9c0-0.3,0.2-0.5,0.5-0.5c0.3,0,0.5,0.2,0.5,0.5c0,0.3-0.2,0.5-0.5,0.5
				C405.4,93.3,405.2,93.1,405.2,92.9z"/>
			<path class="st2" d="M389.1,6c0-0.2,0.2-0.4,0.4-0.4c0.2,0,0.4,0.2,0.4,0.4s-0.2,0.4-0.4,0.4C389.3,6.4,389.1,6.2,389.1,6z"/>
			<path class="st2" d="M597.9,42c0-0.2,0.2-0.4,0.4-0.4c0.2,0,0.4,0.2,0.4,0.4c0,0.2-0.2,0.4-0.4,0.4
				C598.1,42.4,597.9,42.2,597.9,42z"/>
			<path class="st2" d="M729.4,91.3c0-0.4,0.3-0.8,0.8-0.8c0.4,0,0.8,0.3,0.8,0.8c0,0.4-0.3,0.8-0.8,0.8
				C729.7,92,729.4,91.7,729.4,91.3z"/>
			<circle class="st2" cx="544.7" cy="98.3" r="0.7"/>
			<path class="st2" d="M479.1,448.2c0-0.3,0.2-0.5,0.5-0.5c0.3,0,0.5,0.2,0.5,0.5c0,0.3-0.2,0.5-0.5,0.5
				C479.4,448.7,479.1,448.5,479.1,448.2z"/>
			<path class="st2" d="M128,394.7c0-0.3,0.3-0.6,0.6-0.6c0.3,0,0.6,0.3,0.6,0.6s-0.3,0.6-0.6,0.6C128.3,395.3,128,395,128,394.7z"
				/>
			<path class="st2" d="M757.7,53.5c0-0.7,0.6-1.4,1.4-1.4c0.7,0,1.4,0.6,1.4,1.4c0,0.7-0.6,1.4-1.4,1.4
				C758.3,54.9,757.7,54.3,757.7,53.5z"/>
			<path class="st2" d="M460.2,398.7c0-0.2,0.2-0.4,0.4-0.4c0.2,0,0.4,0.2,0.4,0.4s-0.2,0.4-0.4,0.4
				C460.4,399.1,460.2,398.9,460.2,398.7z"/>
			<path class="st2" d="M694.8,288c0-0.9,0.7-1.7,1.7-1.7c0.9,0,1.7,0.7,1.7,1.7c0,0.9-0.7,1.7-1.7,1.7
				C695.6,289.7,694.8,288.9,694.8,288z"/>
			<path class="st2" d="M4.9,128.8c0-0.3,0.2-0.5,0.5-0.5c0.3,0,0.5,0.2,0.5,0.5s-0.2,0.5-0.5,0.5C5.1,129.3,4.9,129.1,4.9,128.8z"
				/>
			<circle class="st2" cx="385.4" cy="410.8" r="0.6"/>
			<circle class="st2" cx="35.4" cy="50.7" r="1.1"/>
			<path class="st2" d="M5.4,423.7c0-0.3,0.2-0.5,0.5-0.5c0.3,0,0.5,0.2,0.5,0.5c0,0.3-0.2,0.5-0.5,0.5C5.6,424.2,5.4,424,5.4,423.7
				z"/>
			<path class="st2" d="M419.1,364.6c0-0.3,0.2-0.5,0.5-0.5c0.3,0,0.5,0.2,0.5,0.5s-0.2,0.5-0.5,0.5
				C419.3,365.1,419.1,364.9,419.1,364.6z"/>
			<path class="st2" d="M444.9,412.6c0-0.9,0.7-1.6,1.6-1.6c0.9,0,1.6,0.7,1.6,1.6c0,0.9-0.7,1.6-1.6,1.6
				C445.6,414.2,444.9,413.5,444.9,412.6z"/>
			<path class="st2" d="M77.1,283.4c0-0.3,0.2-0.5,0.5-0.5c0.3,0,0.5,0.2,0.5,0.5c0,0.3-0.2,0.5-0.5,0.5
				C77.3,284,77.1,283.7,77.1,283.4z"/>
			<path class="st2" d="M52.2,172.3c0-0.2,0.2-0.4,0.4-0.4c0.2,0,0.4,0.2,0.4,0.4s-0.2,0.4-0.4,0.4
				C52.3,172.7,52.2,172.6,52.2,172.3z"/>
			<path class="st2" d="M3.4,171.8c0-0.7,0.6-1.2,1.2-1.2s1.2,0.6,1.2,1.2c0,0.7-0.6,1.2-1.2,1.2S3.4,172.5,3.4,171.8z"/>
			<path class="st2" d="M744.2,336.7c0-0.5,0.4-0.8,0.8-0.8s0.8,0.4,0.8,0.8c0,0.5-0.4,0.8-0.8,0.8S744.2,337.1,744.2,336.7z"/>
			<path class="st2" d="M750.8,104.4c0-0.2,0.2-0.4,0.4-0.4c0.2,0,0.4,0.2,0.4,0.4c0,0.2-0.2,0.4-0.4,0.4
				C750.9,104.8,750.8,104.6,750.8,104.4z"/>
			<path class="st2" d="M518.2,84.9c0-0.9,0.7-1.6,1.6-1.6c0.9,0,1.6,0.7,1.6,1.6c0,0.9-0.7,1.6-1.6,1.6
				C518.9,86.5,518.2,85.8,518.2,84.9z"/>
			<path class="st2" d="M790,243.1c0-0.2,0.2-0.4,0.4-0.4c0.2,0,0.4,0.2,0.4,0.4c0,0.2-0.2,0.4-0.4,0.4
				C790.2,243.5,790,243.3,790,243.1z"/>
			<circle class="st2" cx="236" cy="342.3" r="0.4"/>
			<path class="st2" d="M309.7,322.5c0-0.2,0.2-0.4,0.4-0.4c0.2,0,0.4,0.2,0.4,0.4c0,0.2-0.2,0.4-0.4,0.4
				C309.9,322.9,309.7,322.7,309.7,322.5z"/>
			<circle class="st2" cx="505.1" cy="432.1" r="0.7"/>
			<path class="st2" d="M367.3,341.9c0-0.3,0.2-0.5,0.5-0.5c0.3,0,0.5,0.2,0.5,0.5c0,0.3-0.2,0.5-0.5,0.5
				C367.6,342.4,367.3,342.2,367.3,341.9z"/>
			<path class="st2" d="M688.4,198.7c0-0.2,0.2-0.4,0.4-0.4c0.2,0,0.4,0.2,0.4,0.4c0,0.2-0.2,0.4-0.4,0.4
				C688.6,199.2,688.4,199,688.4,198.7z"/>
			<path class="st2" d="M13,263c0-1,0.8-1.9,1.9-1.9s1.9,0.8,1.9,1.9c0,1-0.8,1.9-1.9,1.9S13,264,13,263z"/>
			<path class="st2" d="M160.6,78.6c0-0.2,0.2-0.4,0.4-0.4s0.4,0.2,0.4,0.4c0,0.2-0.2,0.4-0.4,0.4S160.6,78.8,160.6,78.6z"/>
			<path class="st2" d="M17.4,23c0-1,0.8-1.8,1.8-1.8c1,0,1.8,0.8,1.8,1.8c0,1-0.8,1.8-1.8,1.8C18.2,24.8,17.4,24,17.4,23z"/>
			<circle class="st2" cx="116.1" cy="318.6" r="0.7"/>
			<path class="st2" d="M71.9,1.5c0-0.3,0.2-0.5,0.5-0.5c0.3,0,0.5,0.2,0.5,0.5S72.7,2,72.4,2C72.2,2,71.9,1.7,71.9,1.5z"/>
			<circle class="st2" cx="433" cy="56.8" r="0.6"/>
			<path class="st2" d="M169,259.7c0-0.8,0.6-1.4,1.4-1.4c0.8,0,1.4,0.6,1.4,1.4s-0.6,1.4-1.4,1.4C169.6,261,169,260.4,169,259.7z"
				/>
			<circle class="st2" cx="733.6" cy="70.2" r="1.4"/>
			<path class="st2" d="M8.6,244.4c0-0.4,0.3-0.7,0.7-0.7s0.7,0.3,0.7,0.7c0,0.4-0.3,0.7-0.7,0.7S8.6,244.8,8.6,244.4z"/>
			<circle class="st2" cx="200.8" cy="422.3" r="0.4"/>
			<path class="st2" d="M249.8,438.7c0-0.9,0.7-1.6,1.6-1.6c0.9,0,1.6,0.7,1.6,1.6c0,0.9-0.7,1.6-1.6,1.6
				C250.6,440.4,249.8,439.6,249.8,438.7z"/>
			<circle class="st2" cx="215.4" cy="36.8" r="1.9"/>
			<path class="st2" d="M710.6,76.9c0-0.7,0.5-1.2,1.2-1.2c0.7,0,1.2,0.5,1.2,1.2s-0.5,1.2-1.2,1.2
				C711.1,78.1,710.6,77.5,710.6,76.9z"/>
			<path class="st2" d="M618,249.3c0-0.3,0.3-0.6,0.6-0.6c0.3,0,0.6,0.3,0.6,0.6c0,0.3-0.3,0.6-0.6,0.6
				C618.3,249.9,618,249.6,618,249.3z"/>
			<path class="st2" d="M745.7,13.6c0-0.3,0.2-0.5,0.5-0.5s0.5,0.2,0.5,0.5c0,0.3-0.2,0.5-0.5,0.5S745.7,13.9,745.7,13.6z"/>
			<circle class="st2" cx="147.4" cy="27.4" r="1.8"/>
			<path class="st2" d="M519.4,438.2c0-0.2,0.2-0.4,0.4-0.4c0.2,0,0.4,0.2,0.4,0.4c0,0.2-0.2,0.4-0.4,0.4
				C519.5,438.6,519.4,438.5,519.4,438.2z"/>
			<path class="st2" d="M661.3,450.2c0-0.3,0.2-0.5,0.5-0.5c0.3,0,0.5,0.2,0.5,0.5c0,0.3-0.2,0.5-0.5,0.5
				C661.5,450.7,661.3,450.4,661.3,450.2z"/>
			<path class="st2" d="M69.7,257.9c0-0.6,0.5-1.1,1.1-1.1s1.1,0.5,1.1,1.1c0,0.6-0.5,1.1-1.1,1.1S69.7,258.5,69.7,257.9z"/>
			<path class="st2" d="M731.6,229.4c0-0.3,0.2-0.5,0.5-0.5c0.3,0,0.5,0.2,0.5,0.5c0,0.3-0.2,0.5-0.5,0.5
				C731.9,230,731.6,229.7,731.6,229.4z"/>
			<path class="st2" d="M140.4,316c0-0.2,0.2-0.4,0.4-0.4c0.2,0,0.4,0.2,0.4,0.4c0,0.2-0.2,0.4-0.4,0.4
				C140.6,316.4,140.4,316.2,140.4,316z"/>
			<path class="st2" d="M170.8,427.2c0-0.7,0.6-1.3,1.3-1.3s1.3,0.6,1.3,1.3c0,0.7-0.6,1.3-1.3,1.3S170.8,427.9,170.8,427.2z"/>
			<path class="st2" d="M125.5,415.1c0-0.3,0.2-0.5,0.5-0.5c0.3,0,0.5,0.2,0.5,0.5c0,0.3-0.2,0.5-0.5,0.5
				C125.8,415.6,125.5,415.4,125.5,415.1z"/>
			<path class="st2" d="M798.3,119.6c0-1,0.8-1.8,1.8-1.8c1,0,1.8,0.8,1.8,1.8c0,1-0.8,1.8-1.8,1.8
				C799.1,121.3,798.3,120.6,798.3,119.6z"/>
			<circle class="st2" cx="196.3" cy="156.2" r="0.9"/>
			<path class="st2" d="M85.5,342.9c0-1,0.8-1.8,1.8-1.8c1,0,1.8,0.8,1.8,1.8c0,1-0.8,1.8-1.8,1.8C86.3,344.7,85.5,343.9,85.5,342.9
				z"/>
			<path class="st2" d="M783.2,53.3c0-0.3,0.2-0.5,0.5-0.5s0.5,0.2,0.5,0.5c0,0.3-0.2,0.5-0.5,0.5S783.2,53.6,783.2,53.3z"/>
			<path class="st2" d="M677,372.6c0-0.5,0.4-0.9,0.9-0.9c0.5,0,0.9,0.4,0.9,0.9c0,0.5-0.4,0.9-0.9,0.9
				C677.4,373.5,677,373.1,677,372.6z"/>
			<path class="st2" d="M747.4,382.4c0-0.2,0.2-0.4,0.4-0.4c0.2,0,0.4,0.2,0.4,0.4c0,0.2-0.2,0.4-0.4,0.4
				C747.6,382.8,747.4,382.6,747.4,382.4z"/>
			<path class="st2" d="M34.6,318.2c0-0.4,0.3-0.8,0.8-0.8c0.4,0,0.8,0.3,0.8,0.8c0,0.4-0.3,0.8-0.8,0.8
				C35,319,34.6,318.6,34.6,318.2z"/>
			<path class="st2" d="M766.6,32.5c0-0.9,0.8-1.7,1.7-1.7c0.9,0,1.7,0.8,1.7,1.7c0,0.9-0.8,1.7-1.7,1.7
				C767.4,34.3,766.6,33.5,766.6,32.5z"/>
			<path class="st2" d="M258.4,79.3c0-0.6,0.5-1.1,1.1-1.1c0.6,0,1.1,0.5,1.1,1.1c0,0.6-0.5,1.1-1.1,1.1
				C258.9,80.4,258.4,79.9,258.4,79.3z"/>
			<path class="st2" d="M149.5,295.2c0-0.6,0.5-1.1,1.1-1.1s1.1,0.5,1.1,1.1c0,0.6-0.5,1.1-1.1,1.1S149.5,295.9,149.5,295.2z"/>
			<circle class="st2" cx="509.6" cy="111.6" r="0.9"/>
			<path class="st2" d="M131.7,96c0-0.7,0.5-1.2,1.2-1.2c0.7,0,1.2,0.5,1.2,1.2c0,0.7-0.5,1.2-1.2,1.2
				C132.3,97.3,131.7,96.7,131.7,96z"/>
			<path class="st2" d="M721.2,300.3c0-0.8,0.7-1.5,1.5-1.5c0.8,0,1.5,0.7,1.5,1.5c0,0.8-0.7,1.5-1.5,1.5
				C721.8,301.8,721.2,301.1,721.2,300.3z"/>
			<path class="st2" d="M541.7,32.8c0-1,0.8-1.7,1.7-1.7s1.7,0.8,1.7,1.7c0,1-0.8,1.7-1.7,1.7S541.7,33.8,541.7,32.8z"/>
			<circle class="st2" cx="445.1" cy="23.1" r="1.3"/>
			<path class="st2" d="M661.9,50.7c0-0.2,0.2-0.4,0.4-0.4c0.2,0,0.4,0.2,0.4,0.4c0,0.2-0.2,0.4-0.4,0.4
				C662.1,51.1,661.9,50.9,661.9,50.7z"/>
			<path class="st2" d="M77.1,361.8c0-0.9,0.8-1.7,1.7-1.7c0.9,0,1.7,0.8,1.7,1.7c0,0.9-0.8,1.7-1.7,1.7
				C77.9,363.5,77.1,362.7,77.1,361.8z"/>
			<circle class="st2" cx="79.6" cy="311.8" r="0.8"/>
			<path class="st2" d="M50.7,27.4c0-0.4,0.4-0.8,0.8-0.8c0.4,0,0.8,0.4,0.8,0.8c0,0.4-0.4,0.8-0.8,0.8
				C51.1,28.2,50.7,27.9,50.7,27.4z"/>
			<path class="st2" d="M167.1,8.2c0-0.3,0.3-0.6,0.6-0.6c0.3,0,0.6,0.3,0.6,0.6c0,0.3-0.3,0.6-0.6,0.6
				C167.4,8.7,167.1,8.5,167.1,8.2z"/>
			<path class="st2" d="M725.2,47.7c0-0.2,0.2-0.4,0.4-0.4c0.2,0,0.4,0.2,0.4,0.4s-0.2,0.4-0.4,0.4
				C725.4,48.1,725.2,47.9,725.2,47.7z"/>
			<path class="st2" d="M613.6,23.2c0-0.4,0.3-0.8,0.8-0.8c0.4,0,0.8,0.3,0.8,0.8c0,0.4-0.3,0.8-0.8,0.8
				C614,23.9,613.6,23.6,613.6,23.2z"/>
			<path class="st2" d="M125.9,443.2c0-0.3,0.2-0.5,0.5-0.5c0.3,0,0.5,0.2,0.5,0.5s-0.2,0.5-0.5,0.5
				C126.1,443.7,125.9,443.4,125.9,443.2z"/>
			<path class="st2" d="M554,51.9c0-0.2,0.2-0.4,0.4-0.4c0.2,0,0.4,0.2,0.4,0.4c0,0.2-0.2,0.4-0.4,0.4C554.2,52.3,554,52.1,554,51.9
				z"/>
			<path class="st2" d="M637.1,27.9c0-1.1,0.9-1.9,1.9-1.9s1.9,0.9,1.9,1.9s-0.9,1.9-1.9,1.9S637.1,28.9,637.1,27.9z"/>
			<path class="st2" d="M59.6,307c0-0.5,0.4-0.8,0.8-0.8c0.5,0,0.8,0.4,0.8,0.8c0,0.5-0.4,0.8-0.8,0.8C60,307.8,59.6,307.5,59.6,307
				z"/>
			<path class="st2" d="M682.6,356.1c0-0.5,0.4-0.9,0.9-0.9c0.5,0,0.9,0.4,0.9,0.9c0,0.5-0.4,0.9-0.9,0.9
				C683,357,682.6,356.6,682.6,356.1z"/>
			<path class="st2" d="M31.7,343.9c0-0.3,0.2-0.5,0.5-0.5c0.3,0,0.5,0.2,0.5,0.5c0,0.3-0.2,0.5-0.5,0.5
				C31.9,344.4,31.7,344.2,31.7,343.9z"/>
			<circle class="st2" cx="429.9" cy="439.4" r="1"/>
			<circle class="st2" cx="9.9" cy="219.4" r="1.3"/>
			<path class="st2" d="M105.7,428.2c0-0.5,0.4-1,1-1s1,0.4,1,1c0,0.5-0.4,1-1,1S105.7,428.8,105.7,428.2z"/>
			<path class="st2" d="M384.2,382c0-0.3,0.3-0.6,0.6-0.6c0.3,0,0.6,0.3,0.6,0.6c0,0.3-0.3,0.6-0.6,0.6
				C384.5,382.5,384.2,382.3,384.2,382z"/>
			<path class="st2" d="M643.6,356.7c0-0.8,0.6-1.4,1.4-1.4c0.8,0,1.4,0.6,1.4,1.4c0,0.8-0.6,1.4-1.4,1.4
				C644.2,358.1,643.6,357.5,643.6,356.7z"/>
			<path class="st2" d="M324.8,385.2c0-0.3,0.2-0.5,0.5-0.5s0.5,0.2,0.5,0.5s-0.2,0.5-0.5,0.5S324.8,385.4,324.8,385.2z"/>
			<path class="st2" d="M22.2,442.3c0-0.8,0.6-1.4,1.4-1.4c0.8,0,1.4,0.6,1.4,1.4c0,0.8-0.6,1.4-1.4,1.4
				C22.8,443.7,22.2,443.1,22.2,442.3z"/>
			<circle class="st2" cx="26.6" cy="390.9" r="0.4"/>
			<path class="st2" d="M42.8,370.1c0-0.5,0.4-0.9,0.9-0.9c0.5,0,0.9,0.4,0.9,0.9c0,0.5-0.4,0.9-0.9,0.9
				C43.2,370.9,42.8,370.6,42.8,370.1z"/>
			<path class="st2" d="M99.8,2c0-0.9,0.7-1.7,1.7-1.7c0.9,0,1.7,0.7,1.7,1.7s-0.7,1.7-1.7,1.7C100.5,3.7,99.8,2.9,99.8,2z"/>
			<path class="st2" d="M13.3,296.6c0-0.7,0.6-1.4,1.4-1.4c0.7,0,1.4,0.6,1.4,1.4c0,0.7-0.6,1.4-1.4,1.4
				C13.9,297.9,13.3,297.3,13.3,296.6z"/>
			<circle class="st2" cx="686.3" cy="107.8" r="1.4"/>
			<path class="st2" d="M751.7,213.3c0-0.3,0.2-0.5,0.5-0.5c0.3,0,0.5,0.2,0.5,0.5c0,0.3-0.2,0.5-0.5,0.5
				C751.9,213.8,751.7,213.6,751.7,213.3z"/>
			<circle class="st2" cx="173.9" cy="65.9" r="0.7"/>
			<path class="st2" d="M29.2,421.9c0-0.4,0.3-0.7,0.7-0.7c0.4,0,0.7,0.3,0.7,0.7c0,0.4-0.3,0.7-0.7,0.7
				C29.5,422.6,29.2,422.3,29.2,421.9z"/>
			<path class="st2" d="M680,85.3c0-1,0.8-1.8,1.8-1.8c1,0,1.8,0.8,1.8,1.8c0,1-0.8,1.8-1.8,1.8C680.9,87.1,680,86.3,680,85.3z"/>
			<path class="st2" d="M321.8,419.9c0-0.3,0.3-0.6,0.6-0.6c0.3,0,0.6,0.3,0.6,0.6c0,0.3-0.3,0.6-0.6,0.6
				C322,420.5,321.8,420.2,321.8,419.9z"/>
			<path class="st2" d="M796.7,28.3c0-0.8,0.7-1.5,1.5-1.5c0.8,0,1.5,0.7,1.5,1.5s-0.7,1.5-1.5,1.5
				C797.4,29.8,796.7,29.1,796.7,28.3z"/>
			<circle class="st2" cx="288.9" cy="401.4" r="0.6"/>
			<path class="st2" d="M739.3,185.4c0-0.8,0.7-1.5,1.5-1.5c0.8,0,1.5,0.7,1.5,1.5c0,0.8-0.7,1.5-1.5,1.5
				C740,186.9,739.3,186.2,739.3,185.4z"/>
			<circle class="st2" cx="152.1" cy="354.8" r="1.5"/>
			<path class="st2" d="M183.3,28.7c0-0.3,0.2-0.5,0.5-0.5c0.3,0,0.5,0.2,0.5,0.5c0,0.3-0.2,0.5-0.5,0.5
				C183.5,29.2,183.3,29,183.3,28.7z"/>
			<path class="st2" d="M787.5,312.3c0-0.7,0.5-1.2,1.2-1.2s1.2,0.5,1.2,1.2s-0.5,1.2-1.2,1.2S787.5,313,787.5,312.3z"/>
			<circle class="st2" cx="455.9" cy="442.2" r="1.5"/>
			<path class="st2" d="M715.9,391.3c0-0.3,0.3-0.6,0.6-0.6c0.3,0,0.6,0.3,0.6,0.6c0,0.3-0.3,0.6-0.6,0.6
				C716.1,391.9,715.9,391.7,715.9,391.3z"/>
			<path class="st2" d="M528.2-0.1c0-0.3,0.2-0.5,0.5-0.5c0.3,0,0.5,0.2,0.5,0.5s-0.2,0.5-0.5,0.5C528.5,0.4,528.2,0.1,528.2-0.1z"
				/>
			<path class="st2" d="M683.2,20.8c0-0.3,0.2-0.5,0.5-0.5c0.3,0,0.5,0.2,0.5,0.5c0,0.3-0.2,0.5-0.5,0.5
				C683.4,21.3,683.2,21.1,683.2,20.8z"/>
			<path class="st2" d="M213,313.5c0-0.4,0.3-0.7,0.7-0.7c0.4,0,0.7,0.3,0.7,0.7c0,0.4-0.3,0.7-0.7,0.7
				C213.3,314.2,213,313.9,213,313.5z"/>
			<path class="st2" d="M574,34.3c0-0.3,0.3-0.6,0.6-0.6c0.3,0,0.6,0.3,0.6,0.6c0,0.3-0.3,0.6-0.6,0.6C574.3,34.9,574,34.6,574,34.3
				z"/>
			<path class="st2" d="M726.8,427.4c0-0.2,0.2-0.4,0.4-0.4c0.2,0,0.4,0.2,0.4,0.4c0,0.2-0.2,0.4-0.4,0.4
				C727,427.8,726.8,427.6,726.8,427.4z"/>
			<path class="st2" d="M57.9,344.5c0-0.4,0.3-0.7,0.7-0.7c0.4,0,0.7,0.3,0.7,0.7c0,0.4-0.3,0.7-0.7,0.7
				C58.2,345.2,57.9,344.9,57.9,344.5z"/>
			<circle class="st2" cx="205.3" cy="13.7" r="1.4"/>
			<path class="st2" d="M121.2,172.5c0-0.5,0.4-0.9,0.9-0.9c0.5,0,0.9,0.4,0.9,0.9c0,0.5-0.4,0.9-0.9,0.9
				C121.6,173.3,121.2,172.9,121.2,172.5z"/>
			<path class="st2" d="M744.6,48.3c0-0.3,0.2-0.5,0.5-0.5c0.3,0,0.5,0.2,0.5,0.5s-0.2,0.5-0.5,0.5
				C744.8,48.8,744.6,48.6,744.6,48.3z"/>
			<path class="st2" d="M713.9,0.3c0-0.6,0.5-1.1,1.1-1.1c0.6,0,1.1,0.5,1.1,1.1s-0.5,1.1-1.1,1.1C714.4,1.4,713.9,0.9,713.9,0.3z"
				/>
			<path class="st2" d="M615.4,50.6c0-0.2,0.2-0.4,0.4-0.4c0.2,0,0.4,0.2,0.4,0.4c0,0.2-0.2,0.4-0.4,0.4
				C615.6,51,615.4,50.9,615.4,50.6z"/>
			<circle class="st2" cx="640.1" cy="380.3" r="2"/>
			<path class="st2" d="M444.4,98.2c0-0.9,0.8-1.7,1.7-1.7c0.9,0,1.7,0.8,1.7,1.7s-0.8,1.7-1.7,1.7
				C445.1,99.9,444.4,99.1,444.4,98.2z"/>
			<path class="st2" d="M178.2,286c0-0.4,0.3-0.7,0.7-0.7c0.4,0,0.7,0.3,0.7,0.7c0,0.4-0.3,0.7-0.7,0.7
				C178.5,286.7,178.2,286.4,178.2,286z"/>
			<path class="st2" d="M656.7,77c0-0.2,0.2-0.4,0.4-0.4c0.2,0,0.4,0.2,0.4,0.4c0,0.2-0.2,0.4-0.4,0.4
				C656.9,77.4,656.7,77.2,656.7,77z"/>
			<circle class="st2" cx="103.3" cy="263" r="0.6"/>
			<path class="st2" d="M551.7,357.3c0-0.6,0.5-1.1,1.1-1.1c0.6,0,1.1,0.5,1.1,1.1s-0.5,1.1-1.1,1.1
				C552.2,358.4,551.7,357.9,551.7,357.3z"/>
			<path class="st2" d="M661.2,122.5c0-0.2,0.2-0.4,0.4-0.4s0.4,0.2,0.4,0.4s-0.2,0.4-0.4,0.4S661.2,122.8,661.2,122.5z"/>
			<path class="st2" d="M53.1,247.7c0-0.3,0.2-0.5,0.5-0.5s0.5,0.2,0.5,0.5c0,0.3-0.2,0.5-0.5,0.5S53.1,248,53.1,247.7z"/>
			<path class="st2" d="M343.4,23.1c0-0.3,0.2-0.5,0.5-0.5s0.5,0.2,0.5,0.5c0,0.3-0.2,0.5-0.5,0.5S343.4,23.4,343.4,23.1z"/>
			<path class="st2" d="M172.7,112.2c0-0.4,0.3-0.7,0.7-0.7c0.4,0,0.7,0.3,0.7,0.7s-0.3,0.7-0.7,0.7
				C173.1,113,172.7,112.6,172.7,112.2z"/>
			<path class="st2" d="M795.1,99.9c0-0.3,0.3-0.6,0.6-0.6c0.3,0,0.6,0.3,0.6,0.6s-0.3,0.6-0.6,0.6
				C795.3,100.5,795.1,100.2,795.1,99.9z"/>
			<path class="st2" d="M393.8,48.7c0-1,0.8-1.8,1.8-1.8s1.8,0.8,1.8,1.8s-0.8,1.8-1.8,1.8S393.8,49.7,393.8,48.7z"/>
			<path class="st2" d="M511.2,21.2c0-0.8,0.7-1.5,1.5-1.5c0.8,0,1.5,0.7,1.5,1.5c0,0.8-0.7,1.5-1.5,1.5
				C511.9,22.6,511.2,22,511.2,21.2z"/>
			<path class="st2" d="M247,21.7c0-0.8,0.7-1.5,1.5-1.5c0.8,0,1.5,0.7,1.5,1.5c0,0.8-0.7,1.5-1.5,1.5C247.6,23.2,247,22.5,247,21.7
				z"/>
			<path class="st2" d="M86.6,382c0-0.3,0.2-0.5,0.5-0.5s0.5,0.2,0.5,0.5c0,0.3-0.2,0.5-0.5,0.5S86.6,382.2,86.6,382z"/>
			<path class="st2" d="M423.3,79.1c0-0.3,0.3-0.6,0.6-0.6c0.3,0,0.6,0.3,0.6,0.6s-0.3,0.6-0.6,0.6
				C423.5,79.7,423.3,79.4,423.3,79.1z"/>
			<path class="st2" d="M620.3,4.5c0-0.2,0.2-0.4,0.4-0.4c0.2,0,0.4,0.2,0.4,0.4c0,0.2-0.2,0.4-0.4,0.4
				C620.5,4.9,620.3,4.7,620.3,4.5z"/>
			<path class="st2" d="M723,28.9c0-0.2,0.2-0.4,0.4-0.4c0.2,0,0.4,0.2,0.4,0.4s-0.2,0.4-0.4,0.4C723.2,29.3,723,29.1,723,28.9z"/>
			<path class="st2" d="M770.5,85.9c0-0.2,0.2-0.4,0.4-0.4c0.2,0,0.4,0.2,0.4,0.4c0,0.2-0.2,0.4-0.4,0.4
				C770.7,86.3,770.5,86.2,770.5,85.9z"/>
			<path class="st2" d="M39.1,261.7c0-0.3,0.2-0.5,0.5-0.5c0.3,0,0.5,0.2,0.5,0.5c0,0.3-0.2,0.5-0.5,0.5
				C39.3,262.1,39.1,261.9,39.1,261.7z"/>
			<circle class="st2" cx="268.4" cy="409.1" r="2"/>
			<path class="st2" d="M239.1,103.1c0-0.2,0.2-0.4,0.4-0.4c0.2,0,0.4,0.2,0.4,0.4c0,0.2-0.2,0.4-0.4,0.4
				C239.3,103.5,239.1,103.4,239.1,103.1z"/>
			<path class="st2" d="M16.3,39.7c0-0.3,0.3-0.6,0.6-0.6s0.6,0.3,0.6,0.6c0,0.3-0.3,0.6-0.6,0.6S16.3,40,16.3,39.7z"/>
			<path class="st2" d="M699.3,60.9c0-0.3,0.2-0.5,0.5-0.5c0.3,0,0.5,0.2,0.5,0.5c0,0.3-0.2,0.5-0.5,0.5
				C699.5,61.4,699.3,61.2,699.3,60.9z"/>
			<circle class="st2" cx="525.3" cy="375.5" r="0.4"/>
			<circle class="st2" cx="713.2" cy="206.5" r="1.2"/>
			<path class="st2" d="M39.1,120.6c0-0.8,0.6-1.4,1.4-1.4c0.8,0,1.4,0.6,1.4,1.4c0,0.8-0.6,1.4-1.4,1.4
				C39.8,122,39.1,121.4,39.1,120.6z"/>
			<path class="st2" d="M77.8,438.4c0-0.3,0.3-0.6,0.6-0.6s0.6,0.3,0.6,0.6c0,0.3-0.3,0.6-0.6,0.6S77.8,438.7,77.8,438.4z"/>
			<path class="st2" d="M123,15.2c0-0.4,0.3-0.7,0.7-0.7s0.7,0.3,0.7,0.7c0,0.4-0.3,0.7-0.7,0.7S123,15.6,123,15.2z"/>
			<circle class="st2" cx="141.8" cy="255.6" r="0.4"/>
			<path class="st2" d="M385.4,97.7c0-0.4,0.3-0.7,0.7-0.7c0.4,0,0.7,0.3,0.7,0.7c0,0.4-0.3,0.7-0.7,0.7
				C385.7,98.4,385.4,98.1,385.4,97.7z"/>
			<path class="st2" d="M645.3,326.7c0-0.6,0.5-1.1,1.1-1.1c0.6,0,1.1,0.5,1.1,1.1c0,0.6-0.5,1.1-1.1,1.1
				C645.8,327.8,645.3,327.3,645.3,326.7z"/>
			<path class="st2" d="M556.9,10.5c0-0.7,0.6-1.2,1.2-1.2c0.7,0,1.2,0.6,1.2,1.2c0,0.7-0.6,1.2-1.2,1.2
				C557.4,11.8,556.9,11.2,556.9,10.5z"/>
			<path class="st2" d="M637,147.7c0-0.9,0.7-1.6,1.6-1.6c0.9,0,1.6,0.7,1.6,1.6c0,0.9-0.7,1.6-1.6,1.6
				C637.8,149.3,637,148.6,637,147.7z"/>
			<path class="st2" d="M221,441.1c0-0.2,0.2-0.4,0.4-0.4c0.2,0,0.4,0.2,0.4,0.4c0,0.2-0.2,0.4-0.4,0.4
				C221.2,441.5,221,441.4,221,441.1z"/>
			<path class="st2" d="M323.7,105.5c0-0.6,0.5-1.2,1.2-1.2s1.2,0.5,1.2,1.2c0,0.6-0.5,1.2-1.2,1.2S323.7,106.1,323.7,105.5z"/>
			<path class="st2" d="M662.4,241.4c0-0.3,0.2-0.5,0.5-0.5c0.3,0,0.5,0.2,0.5,0.5c0,0.3-0.2,0.5-0.5,0.5
				C662.6,241.9,662.4,241.7,662.4,241.4z"/>
			<path class="st2" d="M687.8,74c0-0.6,0.5-1.1,1.1-1.1s1.1,0.5,1.1,1.1c0,0.6-0.5,1.1-1.1,1.1S687.8,74.7,687.8,74z"/>
			<path class="st2" d="M198.4,102.4c0-0.6,0.5-1.1,1.1-1.1c0.6,0,1.1,0.5,1.1,1.1s-0.5,1.1-1.1,1.1
				C198.9,103.5,198.4,103,198.4,102.4z"/>
			<path class="st2" d="M107.9,56.7c0-1,0.8-1.7,1.7-1.7c1,0,1.7,0.8,1.7,1.7c0,1-0.8,1.7-1.7,1.7C108.7,58.4,107.9,57.6,107.9,56.7
				z"/>
			<path class="st2" d="M85.7,396.5c0-0.4,0.3-0.6,0.6-0.6c0.4,0,0.6,0.3,0.6,0.6c0,0.4-0.3,0.6-0.6,0.6
				C86,397.2,85.7,396.9,85.7,396.5z"/>
			<path class="st2" d="M305.6,411.8c0-0.7,0.6-1.3,1.3-1.3s1.3,0.6,1.3,1.3c0,0.7-0.6,1.3-1.3,1.3S305.6,412.5,305.6,411.8z"/>
			<circle class="st2" cx="81.1" cy="219.3" r="1.1"/>
			<path class="st2" d="M696.7,385.5c0-0.2,0.2-0.4,0.4-0.4c0.2,0,0.4,0.2,0.4,0.4c0,0.2-0.2,0.4-0.4,0.4
				C696.9,385.9,696.7,385.7,696.7,385.5z"/>
			<circle class="st2" cx="28.4" cy="227.3" r="1.3"/>
			<path class="st2" d="M778.2,335c0-0.3,0.2-0.5,0.5-0.5s0.5,0.2,0.5,0.5c0,0.3-0.2,0.5-0.5,0.5S778.2,335.3,778.2,335z"/>
			<path class="st2" d="M675.1,226c0-0.7,0.5-1.2,1.2-1.2s1.2,0.5,1.2,1.2c0,0.7-0.5,1.2-1.2,1.2S675.1,226.7,675.1,226z"/>
			<path class="st2" d="M719,108.2c0-1,0.8-1.9,1.9-1.9c1,0,1.9,0.8,1.9,1.9c0,1-0.8,1.9-1.9,1.9C719.9,110.1,719,109.2,719,108.2z"
				/>
			<path class="st2" d="M179.8,49.1c0-1.1,0.9-2,2-2c1.1,0,2,0.9,2,2c0,1.1-0.9,2-2,2C180.6,51.1,179.8,50.2,179.8,49.1z"/>
			<path class="st2" d="M292.2,45.5c0-0.6,0.5-1.2,1.2-1.2s1.2,0.5,1.2,1.2s-0.5,1.2-1.2,1.2S292.2,46.1,292.2,45.5z"/>
			<path class="st2" d="M542.7,399.1c0-0.7,0.6-1.3,1.3-1.3c0.7,0,1.3,0.6,1.3,1.3c0,0.7-0.6,1.3-1.3,1.3
				C543.3,400.3,542.7,399.8,542.7,399.1z"/>
			<path class="st2" d="M219.6,65.9c0-0.3,0.2-0.5,0.5-0.5c0.3,0,0.5,0.2,0.5,0.5s-0.2,0.5-0.5,0.5
				C219.8,66.4,219.6,66.2,219.6,65.9z"/>
			<path class="st2" d="M112.4,30.6c0-0.5,0.4-0.9,0.9-0.9c0.5,0,0.9,0.4,0.9,0.9s-0.4,0.9-0.9,0.9
				C112.8,31.5,112.4,31.1,112.4,30.6z"/>
			<circle class="st2" cx="102.5" cy="198.1" r="0.8"/>
			<path class="st2" d="M668.2,270.7c0-0.4,0.3-0.8,0.8-0.8c0.4,0,0.8,0.3,0.8,0.8c0,0.4-0.3,0.8-0.8,0.8
				C668.6,271.5,668.2,271.1,668.2,270.7z"/>
			<path class="st2" d="M10.1,151.4c0-1.1,0.9-1.9,1.9-1.9c1.1,0,1.9,0.9,1.9,1.9s-0.9,1.9-1.9,1.9C11,153.4,10.1,152.5,10.1,151.4z
				"/>
			<path class="st2" d="M696.3,336.3c0-0.2,0.2-0.4,0.4-0.4c0.2,0,0.4,0.2,0.4,0.4c0,0.2-0.2,0.4-0.4,0.4
				C696.5,336.7,696.3,336.5,696.3,336.3z"/>
			<path class="st2" d="M485.1,103c0-0.5,0.4-0.8,0.8-0.8c0.5,0,0.8,0.4,0.8,0.8c0,0.5-0.4,0.8-0.8,0.8
				C485.5,103.8,485.1,103.4,485.1,103z"/>
			<path class="st2" d="M551.9,449.4c0-0.5,0.4-0.9,0.9-0.9c0.5,0,0.9,0.4,0.9,0.9c0,0.5-0.4,0.9-0.9,0.9
				C552.3,450.3,551.9,449.9,551.9,449.4z"/>
			<path class="st2" d="M60.5,390.1c0-0.5,0.4-0.9,0.9-0.9c0.5,0,0.9,0.4,0.9,0.9S62,391,61.5,391C60.9,391,60.5,390.6,60.5,390.1z"
				/>
			<path class="st2" d="M777.6,368.8c0-0.3,0.2-0.5,0.5-0.5s0.5,0.2,0.5,0.5c0,0.3-0.2,0.5-0.5,0.5S777.6,369,777.6,368.8z"/>
			<path class="st2" d="M704.9,225.9c0-0.9,0.7-1.6,1.6-1.6c0.9,0,1.6,0.7,1.6,1.6c0,0.9-0.7,1.6-1.6,1.6
				C705.6,227.5,704.9,226.8,704.9,225.9z"/>
			<path class="st2" d="M234.4,373c0-0.3,0.2-0.5,0.5-0.5s0.5,0.2,0.5,0.5c0,0.3-0.2,0.5-0.5,0.5S234.4,373.3,234.4,373z"/>
			<path class="st2" d="M143.3,384.1c0-0.3,0.2-0.6,0.6-0.6c0.3,0,0.6,0.2,0.6,0.6c0,0.3-0.2,0.6-0.6,0.6
				C143.5,384.6,143.3,384.4,143.3,384.1z"/>
			
				<ellipse transform="matrix(2.382546e-03 -1 1 2.382546e-03 655.6137 655.0842)" class="st2" cx="656.1" cy="-1" rx="1.7" ry="1.7"/>
			<path class="st2" d="M155.6,404.9c0-0.4,0.4-0.8,0.8-0.8s0.8,0.4,0.8,0.8c0,0.4-0.4,0.8-0.8,0.8S155.6,405.3,155.6,404.9z"/>
			<path class="st2" d="M635.1,422.4c0-0.6,0.5-1.1,1.1-1.1c0.6,0,1.1,0.5,1.1,1.1c0,0.6-0.5,1.1-1.1,1.1
				C635.6,423.5,635.1,423,635.1,422.4z"/>
			<path class="st2" d="M646.6,8.6c0-0.3,0.2-0.5,0.5-0.5c0.3,0,0.5,0.2,0.5,0.5c0,0.3-0.2,0.5-0.5,0.5
				C646.8,9.2,646.6,8.9,646.6,8.6z"/>
			<path class="st2" d="M628.9,73.1c0-0.8,0.7-1.5,1.5-1.5c0.8,0,1.5,0.7,1.5,1.5c0,0.8-0.7,1.5-1.5,1.5
				C629.6,74.6,628.9,74,628.9,73.1z"/>
		</g>
	</g>
	<path class="st2" d="M137.8,56.8l0.9,4.3c0.4,1.9,1.9,3.3,3.7,3.7l4.3,0.9l-4.3,0.9c-1.9,0.4-3.3,1.9-3.7,3.7l-0.9,4.3l-0.9-4.3
		c-0.4-1.9-1.9-3.3-3.7-3.7l-4.3-0.9l4.3-0.9c1.9-0.4,3.3-1.9,3.7-3.7L137.8,56.8z"/>
	<path class="st2" d="M114.2,363l1.4,6.9c0.6,3,3,5.4,6,6l6.9,1.4l-6.9,1.4c-3,0.6-5.4,3-6,6l-1.4,6.9l-1.4-6.9c-0.6-3-3-5.4-6-6
		l-6.9-1.4l6.9-1.4c3-0.6,5.4-3,6-6L114.2,363z"/>
	<path class="st2" d="M48.8,284.1l1,4.6c0.4,2,2,3.6,4,4l4.6,1l-4.6,1c-2,0.4-3.6,2-4,4l-1,4.6l-1-4.6c-0.4-2-2-3.6-4-4l-4.6-1
		l4.6-1c2-0.4,3.6-2,4-4L48.8,284.1z"/>
	<path class="st2" d="M732.7,143.3l1,4.6c0.4,2,2,3.6,4,4l4.6,1l-4.6,1c-2,0.4-3.6,2-4,4l-1,4.6l-1-4.6c-0.4-2-2-3.6-4-4l-4.6-1
		l4.6-1c2-0.4,3.6-2,4-4L732.7,143.3z"/>
	<path class="st4" d="M0,101.3c3.9,34,61,44.3,42,84.3s-44.7,54.8-19.2,75.6C48.3,282,122.6,243,130,290.7
		c7.4,47.7-72.5,57.1-58,105.9c14.4,48.8,85.4-46.9,114.8-9.6c29.4,37.4,102.4,57.9,137.6,57.5c35.2-0.4,103.9-24.1,146.9-10.5
		c43,13.7,71.5,16,71.5,16H0V101.3z"/>
	<path class="st4" d="M800,40.7c0.5,44.8-126.4-12.6-156.4,26.9c-29.9,39.4,18.4,42.9,77.3,72.9c58.8,30-25.8,60.8-22.7,108.1
		c3,47.3,72.4,38.7,70.5,97c-1.9,58.3-101.9,54.6-176,48.5c-74-6.1-53.3,55.9,5.9,55.9H800V40.7z"/>
	<path class="st4" d="M126.1,0c56.3,0,37.7,84.2,95.2,86.5c57.5,2.2,26.2-66.1,104.8-64.8c78.6,1.4,93.8,37,145.1,35.1
		C522.5,55,566-1.5,589.4,3.2C612.9,8,622.2,0,622.2,0H126.1z"/>
</g>
</svg>
