<?xml version="1.0" encoding="utf-8"?>
<!-- Generator: Adobe Illustrator 19.0.0, SVG Export Plug-In . SVG Version: 6.00 Build 0)  -->
<svg version="1.1" id="Layer_1" xmlns="http://www.w3.org/2000/svg" xmlns:xlink="http://www.w3.org/1999/xlink" x="0px" y="0px"
	 viewBox="0 0 460 460" style="enable-background:new 0 0 460 460;" xml:space="preserve">
<style type="text/css">
	.st0{fill:#D93675;}
	.st1{fill:#732262;}
	.st2{fill:#DBBE60;}
	.st3{fill:#4180B3;}
</style>
<g id="XMLID_10_">
	<g id="XMLID_18_">
		<polygon id="XMLID_7_" class="st0" points="423.8,215.5 339.6,167 120.4,167 36.2,215.5 		"/>
		<polygon id="XMLID_6_" class="st1" points="34.3,222.8 120.6,271.3 339.4,271.3 425.7,222.8 		"/>
	</g>
	<g id="XMLID_14_">
		<polygon id="XMLID_5_" class="st2" points="304.4,280.3 292.9,280.3 338.2,381 		"/>
		<polygon id="XMLID_4_" class="st2" points="155,280.3 121.8,381.8 166.5,280.3 		"/>
		<polygon id="XMLID_3_" class="st2" points="223.3,280.3 229.2,404.4 237,280.3 		"/>
	</g>
	<path id="XMLID_8_" class="st3" d="M230,55.6c-57.7,0-104.4,46.5-104.9,104h209.9C334.4,102.1,287.7,55.6,230,55.6z M160.9,148.7
		h-23c4.7-39.7,33-72.2,70.5-83.1C182.6,85.2,164.9,114.9,160.9,148.7z"/>
</g>
</svg>
