<?xml version="1.0" encoding="utf-8"?>
<!-- Generator: Adobe Illustrator 25.4.1, SVG Export Plug-In . SVG Version: 6.00 Build 0)  -->
<svg version="1.1" id="Layer_1" xmlns="http://www.w3.org/2000/svg" xmlns:xlink="http://www.w3.org/1999/xlink" x="0px" y="0px"
	 viewBox="0 0 500 1000" style="enable-background:new 0 0 500 1000;" xml:space="preserve">
<style type="text/css">
	.st0{fill:#732262;}
	.st1{fill:#145B8C;}
	.st2{fill:#DE9A38;}
	.st3{fill:#959BA3;}
</style>
<g>
	<g>
		<path class="st0" d="M101.3,620.3l0.6,0c-5.4-10.5-10.4-21.2-15.1-32.2C65.5,622.1,53,663.2,53,707.4c0,33,7,64.3,19.4,92.2
			c7.1-48.4,30.8-90.7,64.5-120.3C123.8,660.5,111.8,640.8,101.3,620.3z"/>
		<path class="st0" d="M392.9,620.3l0.6,0c-10,19.5-21.3,38.3-33.7,56.2c35.5,29.6,60.4,73.2,67.8,123.1
			c12.4-27.9,19.4-59.2,19.4-92.2c0-46.3-13.7-89.1-36.9-124.1C404.8,595.9,399.1,608.3,392.9,620.3z"/>
	</g>
	<path class="st1" d="M433.5,393.8c0-72.1-16.4-140.3-45.5-201.3l-281.1,0c-29.2,61-45.6,129.2-45.6,201.3
		c0,76.9,18.6,149.4,51.5,213.4l-0.6,0c17.2,33.6,38.4,64.8,62.9,93.1l144.4,0c24.5-28.3,45.7-59.4,62.9-93.1l-0.6,0
		C414.9,543.2,433.5,470.7,433.5,393.8z M247.4,461.5c-57.8,0-104.6-46.8-104.6-104.6c0-57.8,46.8-104.6,104.6-104.6
		c57.8,0,104.6,46.8,104.6,104.6C352,414.6,305.2,461.5,247.4,461.5z"/>
	<path class="st0" d="M376.5,177.6C347.2,120.3,306.2,70,256.5,30c-6.8-5.5-16.6-5.5-23.4,0c-49.7,40-90.7,90.3-120,147.6
		L376.5,177.6z"/>
	<path class="st2" d="M343.3,780.8c-12.5-28.5-32.1-49-50.8-63.3c1,3.4,2,6.9,2.8,10.6c10.3,49.3-8.1,111.8-46.8,138.9
		c-38.2-28.1-56.4-89.7-46.5-138.9c0.8-4,1.8-7.8,2.9-11.4c-13.4,11.5-27.2,27.1-37.6,47.9c-4.5,9-24.6,49.2-14.6,91.4
		c3.2,13.6,9.7,28.1,11.2,31.2c8.1,17.7,17.4,31.2,24.6,40.3c-0.8-2.3-2.8-9.1-0.4-17.4c2.4-8.2,7.8-12.8,9.7-14.3
		c0.8,9.4,3.9,30.5,19.3,51c11.1,14.8,23.9,23.1,31.8,27.4c7.9-4.7,18.7-12,30.2-22.5c12.6-11.5,26.9-24.6,35.9-45.8
		c9.2-21.8,8.7-42.5,6.9-56c3.1,4.2,7,10.8,9.5,19.4c4,13.8,2.2,25.5,0.9,31.6c6.4-7,15-18.4,20.4-34.2
		C365,830.1,350.4,797,343.3,780.8z"/>
	
		<ellipse transform="matrix(0.2018 -0.9794 0.9794 0.2018 -152.0513 527.1624)" class="st3" cx="247.4" cy="356.9" rx="79.4" ry="79.4"/>
</g>
</svg>
