<?xml version="1.0" encoding="utf-8"?>
<!-- Generator: Adobe Illustrator 25.4.1, SVG Export Plug-In . SVG Version: 6.00 Build 0)  -->
<svg version="1.1" xmlns="http://www.w3.org/2000/svg" xmlns:xlink="http://www.w3.org/1999/xlink" x="0px" y="0px"
	 viewBox="0 0 720 720" style="enable-background:new 0 0 720 720;" xml:space="preserve">
<style type="text/css">
	.st0{fill:none;}
	.st1{fill:#A7ACB1;}
	.st2{fill:#8A9298;}
	.st3{fill:#C7CACC;}
	.st4{fill:#78838A;}
	.st5{fill:#707C83;}
	.st6{fill:#B2B5B9;}
	.st7{fill:#949BA0;}
	.st8{fill:#959BA3;}
	.st9{fill:#132945;}
	.st10{fill:#0C1725;}
	.st11{fill:#4D7EBE;}
</style>
<g id="Layer_2">
	<rect class="st0" width="720" height="720"/>
</g>
<g id="Layer_1">
	<g>
		<g>
			<g>
				<g>
					<path class="st1" d="M684.3,373.6C684.3,421.5,539.1,491,360,491c-179.1,0-324.3-69.5-324.3-117.4
						c0-47.9,145.2-92.4,324.3-92.4C539.1,281.1,684.3,325.6,684.3,373.6z"/>
				</g>
				<g>
					<path class="st2" d="M360,281.1v11.7c122.4,0,218.2,55.9,245.2,150.7c49.2-22.1,79.1-48.2,79.1-70
						C684.3,325.6,539.1,281.1,360,281.1z"/>
				</g>
				<g>
					<path class="st3" d="M360,289.8V301c-115.8,0-206.3,53.1-231.9,143.2c-46.6-21-74.8-32.5-74.8-66.5
						C53.4,332.2,190.7,289.8,360,289.8z"/>
				</g>
				<g>
					<g>
						<path class="st4" d="M360,451.4c-164.1,0-299.6-36.3-321.2-65.3C60.4,432.7,195.9,491,360,491c164.1,0,299.6-58.3,321.2-104.9
							C659.6,415.1,524.1,451.4,360,451.4z"/>
					</g>
				</g>
				<g>
					<path class="st3" d="M70.7,419.2c53.5,23.2,162.9,44.7,289.3,44.7c126.4,0,235.9-21.5,289.3-44.7
						c15.9-11.1,26.9-22.4,31.9-33.1c-21.6,29-157.1,65.3-321.2,65.3c-164.1,0-299.6-36.3-321.2-65.3
						C43.8,396.8,54.8,408.1,70.7,419.2z"/>
				</g>
			</g>
			<g>
				<g>
					<g>
						<g>
							<circle class="st4" cx="360.4" cy="429.2" r="11.8"/>
						</g>
						<g>
							<path class="st3" d="M369.6,424.4c0,5-4.1,9.1-9.1,9.1c-5,0-9.1-4.1-9.1-9.1c0-5,4.1-9.1,9.1-9.1
								C365.5,415.2,369.6,419.3,369.6,424.4z"/>
						</g>
					</g>
					<g>
						<g>
							<path class="st4" d="M465.1,426c0,6.5-5.3,11.8-11.8,11.8c-6.5,0-11.8-5.3-11.8-11.8c0-6.5,5.3-11.8,11.8-11.8
								C459.8,414.2,465.1,419.5,465.1,426z"/>
						</g>
						<g>
							<path class="st3" d="M462.4,421.2c0,5-4.1,9.1-9.1,9.1c-5,0-9.1-4.1-9.1-9.1c0-5,4.1-9.1,9.1-9.1
								C458.3,412.1,462.4,416.2,462.4,421.2z"/>
						</g>
					</g>
					<g>
						<g>
							<circle class="st4" cx="538.8" cy="413.9" r="11.8"/>
						</g>
						<g>
							<path class="st3" d="M548,409.1c0,5-4.1,9.1-9.1,9.1c-5,0-9.1-4.1-9.1-9.1c0-5,4.1-9.1,9.1-9.1
								C543.9,399.9,548,404,548,409.1z"/>
						</g>
					</g>
					<g>
						<g>
							<path class="st5" d="M620.9,397.7c0,6.5-5.3,11.8-11.8,11.8c-6.5,0-11.8-5.3-11.8-11.8c0-6.5,5.3-11.8,11.8-11.8
								C615.6,385.9,620.9,391.2,620.9,397.7z"/>
						</g>
						<g>
							<path class="st6" d="M618.2,392.9c0,5-4.1,9.1-9.1,9.1c-5,0-9.1-4.1-9.1-9.1c0-5,4.1-9.1,9.1-9.1
								C614.1,383.8,618.2,387.9,618.2,392.9z"/>
						</g>
					</g>
					<g>
						<g>
							<circle class="st5" cx="665" cy="368.9" r="11.8"/>
						</g>
						<g>
							<circle class="st6" cx="665" cy="364.1" r="9.1"/>
						</g>
					</g>
				</g>
				<g>
					<g>
						<g>
							<path class="st4" d="M254.9,426.1c0,6.5,5.3,11.8,11.8,11.8c6.5,0,11.8-5.3,11.8-11.8c0-6.5-5.3-11.8-11.8-11.8
								C260.2,414.2,254.9,419.5,254.9,426.1z"/>
						</g>
						<g>
							
								<ellipse transform="matrix(4.384824e-03 -1 1 4.384824e-03 -155.697 686.1052)" class="st3" cx="266.7" cy="421.2" rx="9.1" ry="9.1"/>
						</g>
					</g>
					<g>
						<g>
							<path class="st4" d="M169.3,413.9c0,6.5,5.3,11.8,11.8,11.8c6.5,0,11.8-5.3,11.8-11.8c0-6.5-5.3-11.8-11.8-11.8
								C174.6,402.1,169.3,407.4,169.3,413.9z"/>
						</g>
						<g>
							<ellipse class="st3" cx="181.2" cy="409.1" rx="9.1" ry="9.1"/>
						</g>
					</g>
					<g>
						<g>
							<path class="st7" d="M99.1,397.7c0,6.5,5.3,11.8,11.8,11.8c6.5,0,11.8-5.3,11.8-11.8c0-6.5-5.3-11.8-11.8-11.8
								C104.4,385.9,99.1,391.2,99.1,397.7z"/>
						</g>
						<g>
							<ellipse class="st3" cx="110.9" cy="392.9" rx="9.1" ry="9.1"/>
						</g>
					</g>
					<g>
						<g>
							<path class="st7" d="M43.2,368.9c0,6.5,5.3,11.8,11.8,11.8c6.5,0,11.8-5.3,11.8-11.8c0-6.5-5.3-11.8-11.8-11.8
								C48.5,357,43.2,362.3,43.2,368.9z"/>
						</g>
						<g>
							<ellipse class="st3" cx="55" cy="364.1" rx="9.1" ry="9.1"/>
						</g>
					</g>
				</g>
			</g>
			<g>
				<g>
					<g>
						<path class="st8" d="M523.7,309c-17.6-70.7-84.9-120-163.7-120s-146.1,49.4-163.7,120l-0.9,3.8l2,3.3
							c2.6,4.3,29.2,29.6,162.7,29.6s160.1-25.3,162.7-29.6l2-3.3L523.7,309z"/>
					</g>
					<g>
						<path class="st9" d="M360,198.3c-75.4,0-138.5,48.3-154.6,112.9c0,0,22.6,25.1,154.6,25.1s154.6-25.1,154.6-25.1
							C498.5,246.6,435.4,198.3,360,198.3z"/>
					</g>
				</g>
				<g>
					<g>
						<path class="st10" d="M429.5,333.5c71-6.6,85.2-22.2,85.2-22.2c-16.1-64.7-79.2-112.9-154.6-112.9l0,0
							C389.8,198.3,433.5,245.9,429.5,333.5z"/>
					</g>
					<g>
						<path class="st11" d="M219.8,319.3c13.4,5.3,38.1,11.9,82.1,15.1l1.9-21.6c5.8-61.8,28.8-108,56.2-108
							C297.3,204.8,238.1,253.6,219.8,319.3z"/>
					</g>
				</g>
			</g>
		</g>
	</g>
</g>
</svg>
